<svg xmlns="http://www.w3.org/2000/svg" id="SvgjsSvg7825" width="4096" height="2640.1268333150388" version="1.1" xmlns:xlink="http://www.w3.org/1999/xlink" xmlns:svgjs="http://svgjs.com/svgjs"><defs id="SvgjsDefs7826"></defs><g id="SvgjsG7827" transform="translate(328, 328) scale(34.4)" opacity="1"><defs id="SvgjsDefs2603"><linearGradient id="SvgjsLinearGradientIbultznlV" gradientUnits="userSpaceOnUse" x1="1.0265297585044093" y1="421.22652975850406" x2="423.21790961699605" y2="-0.9648500999876857"><stop id="SvgjsStop2607" stop-color="#4a90e2" offset="0"></stop><stop id="SvgjsStop2608" stop-color="#f5a623" offset="1"></stop></linearGradient></defs><g id="SvgjsG2604" transform="scale(0.29935274115447724)" opacity="1"><g id="SvgjsG2605" class="3HlRq_p0R" transform="translate(0, 0) scale(1)" light-content="false" fill="#ffffff"><path d="M0 0 h 263.32394366197184 v 1 h -263.32394366197184 Z M0 0 h 1 v 192.67605633802816 h -1 Z M263.32394366197184 192.67605633802816 h -263.32394366197184 v -1 h 263.32394366197184 Z M263.32394366197184 192.67605633802816 h -1 v -25.047887323943662 h 1 ZM263.32394366197184 36.60845070422535 h -1 v -36.60845070422535 h 1 Z" fill-rule="nonzero"></path></g><g id="SvgjsG2609" class="Oa1pUnKtT" transform="translate(175.26449623292228, 21.438505857188137) scale(0.3742879101787186)" light-content="false" non-strokable="false" fill="url(#SvgjsLinearGradientIbultznlV)"><path d="M366 173.1c-.2 0-.4.1-.6.1-.2.1-.4.2-.5.5 0 .7-.1 1.5.3 2.4.8.1 1.6.2 2.2-.6-.3-.7-.7-1.5-1-2.2-.1 0-.3-.1-.4-.2zM160 347.2c-.4 1.1-.6 2.3-.9 3.4.4.4.8.8 1.3 1.2-.7.1-1.3.1-2 .2-.9 2.7-1.9 5.4-2.7 8.2 1.1.4 2 .7 3.1 1.1.3-.6.5-1.1.7-1.6 1.3-3.9 2.6-7.7 3.8-11.6.1-.4.3-.8.3-1.1 0-.2-.3-.5-.5-.8.8-.1 1-.6 1.2-1.3 1-3.1 2-6.1 3-9.1-1.1-.3-2.2-.7-3.3-1-1.3 4.1-2.6 8.2-4 12.4zm183.9-123.4c1.7.2 3.3.4 5 .6 3.2.4 6.5.8 9.7 1.2.9.1 1.9.1 2.8.2.3-1.5.3-1.5-.1-2.7-.8-.1-1.7-.3-2.5-.4-1.9-.2-3.8-.4-5.7-.7-3.3-.4-6.7-.8-10-1.3-1.3-.2-2.6-.3-3.9-.5-.1 1-.2 1.9-.3 2.9 1.6.3 3.3.5 5 .7zM190 341.8c1.6.6 1.6.6 3 .1 0-.4 0-.7.1-1.1l-3-.3c0 .4-.1.9-.1 1.3zm54.1 2.8c.8 2.7 1.3 5.4 2.4 8.1 1.1-.4 2.1-.6 2.7-1.5-1.1-4.1-2.2-8.2-3.4-12.3-.2-.6-.4-.6-1.3-.6-.1 0-.1 0-.3-.1.3-.4.6-.8 1-1.3-.1-.3-.1-.6-.2-.9 0-.1-.1-.2-.1-.3l-3 .9c.7 2.6 1.4 5.3 2.2 8zM235 73.7c-1.4-.7-1.4-.7-2.5-.4-.4 1-.6 2-.7 3 .9.2 1.9.4 2.8.6.3-1.1.5-2.2.4-3.2zM79.2 253.1c-3 1.2-6 2-8.9 3.4 0 1.1.3 1.9.8 2.8.8-.2 1.4-.4 2.1-.7 2.6-1 5.3-2 7.9-2.9-.4-1-.8-2-1.1-3-.3.2-.6.3-.8.4zm216.7 55.5c.7.6 1.2 1.3 1.8 2 .5.6 1 1.2 1.6 1.8.5.6 1.1 1.2 1.6 1.8.6.7 1.1 1.3 1.7 2 .5.6 1.1 1.2 1.6 1.8.5.6 1 1.2 1.6 1.8.6.7 1.2 1.3 1.8 2 .5.6.9 1.3 1.7 1.7.9-.5 1.7-1 2-1.9-1-1.5-7.6-9.2-11.5-13.3-.1-.1-.3-.1-.4-.2-.2 0-.3.1-.5.2s-.3.1-.5 0c.1-.4.2-.8.4-1.2-.5-.5-.9-1.1-1.4-1.6-.7.7-1.4 1.3-2.1 1.9.1.3.2.9.6 1.2zm-160.1 13.1c-.4.7-1.1 1.4-1.1 2.3 0 .1 0 .3-.1.4-1.6 1.1-2.1 2.9-3.1 4.4.6.9 1.1 1.7 2.1 2.1.3-.3.6-.6.8-.9.7-1.6 2.2-2.7 2.4-4.6 0-.1.2-.2.3-.3.4-.5.9-.9 1.2-1.4.1-.1.2-.3.3-.4-.9-.6-1.8-1.2-2.8-1.6 0-.1 0-.1 0 0zm-8.9 4.4c.7.7 1.5 1.3 2.7 1.4l4.8-6.6.2-.2-2.7-1.8c-2.7 3.7-4.7 6.6-5 7.2zm-30.8 9.3c-.7.8-1.4 1.7-2.2 2.6-.7.8-1.4 1.5-2 2.4-.6 1-1.5 1.6-2.2 2.5-4.2 5-8.5 10-12.7 15-3 3.5-5.9 6.9-8.9 10.4l-1.2 1.5c-.5.8-.3 1.8.4 2.4.7.6 1.5.6 2.2.1.4-.3.8-.8 1.2-1.2 3.9-4.6 7.9-9.2 11.8-13.9 5.7-6.7 11.5-13.5 17.2-20.2.2-.3.4-.6.6-1-.8-.8-1.6-1.5-2.5-2.4-.6.6-1.1 1.2-1.7 1.8zm220.8-48.6c1.2.8 2.3 1.7 3.5 2.5 1.2.8 2.3 1.7 3.5 2.5 1.2.8 2.3 1.7 3.5 2.5 1.2.8 2.3 1.7 3.5 2.5 1.1.9 2.4 1.5 3.5 2.5 1.1.9 2.2 1.8 3.5 2.5.8-.7 1.3-1.5 1.7-2.4-.6-.5-1-.9-1.6-1.2-.6-.4-1.2-1-1.8-1.1-.7 0-.8-.9-1.5-.9-.3.2-.5.4-.9.7.1-.6.3-1 .4-1.5-.4-.3-.8-.7-1.3-1-3.8-2.7-7.7-5.5-11.5-8.2-1.6-1.2-3.2-2.4-4.8-3.5-.6.9-1.2 1.7-1.8 2.6.7.6 1.5 1 2.1 1.5zM94.7 62.8c1.3 1.6 2.6 3.3 3.8 4.9 1.5 2 3 3.9 4.5 5.9 1.5 2 3.1 3.9 4.5 5.9 1.5 2 3.1 3.8 4.5 5.8.4.6.9 1.1 1.5 1.5.4.3.6.5.4.9 1 1.3 1.9 2.8 3.2 4 .8-.5 1.7-.9 2.3-1.7-1.3-1.9-2.6-3.8-4.2-5.4-.4-.7-.8-1.4-1.4-1.8-.2 0-.3 0-.5.1-.3.1-.6.2-.8-.1-.1-.1 0-.4.1-.6.1-.2.2-.4.3-.7-.3-.4-.6-.8-.8-1.1-3.3-4.3-6.7-8.6-10-12.9-1.5-2-3-3.9-4.5-5.9l-1.2-1.5c-.6-.6-1.6-.6-2.2-.1-.5.5-.6 1.3-.2 2 .2.2.5.5.7.8zm156.4 18.5c-.5-.4-1.1-.8-1.7-1.2.7-.4 1.4.6 2.1.1l.2-.2c.1-.3.3-.6.4-.9.7-2 1.4-2.7-2-2.7-.2 0-.4.1-.8.2-.2.6-.3 1.2-.5 1.8-.1.4-.4.9-.1 1.4.1.1 0 .5-.2.6-.1.1-.2.2-.3.2 1 .3 1.9.7 2.9 1v-.3zM102.5 46.9c1 1.5 1.7 3.1 3.1 4.3.5 1.8 1.7 3.2 2.7 4.7.9 1.5 1.9 3 2.9 4.4 1 1.5 1.9 3.2 3.1 4.5.6.4 1.1-.7 1.8-.1-.4.3-.7.6-1.2 1 2.1 3.8 4.2 6.9 5.5 8.1.7-.3 1.4-.7 2.1-1 .2-.1.4-.3.6-.5-1.5-2.3-2.9-4.5-4.4-6.7-.1-.2-.4-.2-.6-.3-.5.2-1 .3-1.9.6.7-.8 1.1-1.3 1.5-1.8-4-6.1-7.9-12.2-11.9-18.2-.2-.3-.4-.5-.7-.7-.5.3-.9.5-1.3.8-.3.2-.8.5-1.3.9zm-28.8 62.8c.1.1.3.1.6.2.5-.6 1.1-1.2 1.8-2-.3-.4-.4-.6-.6-.7-8.8-6.4-17.7-12.9-26.5-19.3-.2-.1-.4-.2-.7-.3-.8.6-1.2 1.4-1.6 2.2.1.2.1.3.1.4 9 6.4 17.9 13 26.9 19.5zm243-33.4c-.8.5-1.4 1.5-2.1 2.3-.7.8-1.4 1.6-2 2.4-.7.8-1.3 1.6-2 2.4-.7.8-1.3 1.6-2 2.4-.7.8-1.4 1.6-2 2.4-.7.8-1.3 1.6-2 2.4-.7.8-1.3 1.6-2 2.4-.7.8-1.3 1.6-2 2.3.7 2.3.7 2.3 2.3 2.9 2.2-2.3 4.2-4.8 6.2-7.2 2-2.4 4.1-4.7 6.1-7.1 2-2.4 4.2-4.7 6.1-7.3-.8-1-1.7-1.6-2.5-2.2-1.2 0-1.2 1.4-2.1 1.9zm-70.8-.2c.3-1.2-.3-1.9-1.5-1.7-.8.1-1.3.5-1.6 1.3-.1.5-.3 1.1-.5 1.6-.1.4-.2.9-.4 1.3 1 .3 2 .6 3.1.9.3-1.1.6-2.2.9-3.4zm-76.1 263.5c-.4 1.4-.8 2.7-1.1 4.1-.3 1.5-1.1 2.8-.9 4.4 0 .1-.1.3-.2.4-.3.6-.6 1.3-.8 2-.7 2.3-1 4.8-1.9 7.1-.1.3 0 .6.4.8.3-.1.7-.2 1-.5.2-.2.5-.6.5-.8-.3-.7.2-1.5-.2-2.3.7.1 1.3.2 2.2.3.7-1.7 1.1-3.3 1.5-4.9.1-.3-.2-.6-.2-.9 0-.2 0-.5.1-.6.8-.3.9-1.1 1.1-1.8.3-1.1.7-2.1.9-3.2.2-1.2.6-2.3.9-3.4.3-1 .6-1.9.8-2.9-1-.3-2.1-.5-3.1-.8-.5 1-.8 2-1 3zM43.8 117c-.1-.5-.3-1-.8-1.2-2.3-1.2-4.5-2.4-6.8-3.5-.2-.1-.4-.2-.7-.3-.8-.2-1.6.1-2 .9-.4.6-.2 1.5.4 1.9.6.4 1.2.8 1.8 1.1 7.1 3.8 14.3 7.5 21.4 11.2.5.2.9.7 2 .5 0 0 .3-.4.5-.8v.2c0 .6-.3 1.3.5 1.6.7.3.9-.4 1.4-.7.1-.1.2 0 .4 0-.1.5-.2.9-.4 1.4.8.6 1.6 1 2.7 1.3.4-.9 1.2-1.6 1.4-2.9-1.1-.7-2.3-1.3-3.5-1.8-.6-.3-1.2-.1-1.8.3-.2.2-.4.4-.7.5.2-.6.3-1.2.5-1.9-5.1-2.9-10.3-5.4-15.4-8.1l-.9.3zm220.4-45.1c-.3.8-.9 1.5-.7 2.6.8.2 1.4 1.1 2.4 1.3.2-.3.3-.6.5-.9l2.1-4.8c1.1-2.6 2.2-5.3 3.4-7.9.1-.3.1-.6.2-.9.1-.4.3-1.5.5-1.7.3-.3.4-.7.1-1.1-.1-.2-.3-.4-.4-.6 0-.1.1-.2.1-.4l1.2.3c.2-.3.5-.7.6-1 1.4-3.5 3.1-7 4.4-10.7-1-.4-1.6-1.1-2.7-1.2-.4.8-.8 1.6-1.1 2.4-1.8 4.4-3.6 8.9-5.5 13.3-1.7 3.7-3.4 7.4-5.1 11.3zm74.6 161.4c2.4.5 4.9.9 7.3 1.4 2.5.5 5 .8 7.5 1.4.4.1.8.1 1.2 0 .3-.1.6-.3.9-.5.1.3.1.7.3.7 1.3.4 2.7 1 4.1.6.2-.1.5-.1.6 0 .7.9 1.7.6 2.6.9.7-1 1-1.9.6-3.1-2.9-.6-5.7-1.1-8.5-1.6l-17.4-3.3c-.2 1-.4 2.1-.6 3.1.4.3.9.3 1.4.4zm-220.2 75.9c.5 1.2 1.3 2.1 2.3 2.7l.6-.6c-.9-.8-1.8-1.5-2.7-2.3-.2.1-.2.1-.2.2zm-31.3-38.6c-.8-.1-1.4.1-1.7.9-.1.2 0 .5-.4.4-.8-.4-1.4.3-2 .6-2.1 1.1-4.2 2.2-6.3 3.4-2.1 1.2-4.5 2.1-6.4 3.7-2.2.5-4 2-6 2.9-2 1-2 1.4-1 3.3.1.3.4.5.7.8 1.1-.8 2.4-1 3.2-2-.1-.3-.1-.5-.2-.7-.1-.3-.3-.6 0-.9l1.3 1.3 4.5-2.4 7.8-4.2c.8-.4 1.1-1.1.9-2 0-.1.2-.2.3-.4.2.4.4.8.6 1.1 1-.2 1.8-.8 2.1-1.7.2.1.4.3.5.2 1.3-.5 2.6-1.1 3.9-1.9-.4-.8-.9-1.6-1.3-2.3-.1 0-.3-.1-.5-.1zM183.5 16c.4 2.9.7 5.9 1.1 8.8.1.5.3 1 .5 1.7.7 0 1.3.1 2 .1.4 0 .8-.1 1.4-.1-.1-1.1-.1-2-.2-2.9-.4-3.3-.9-6.6-1.3-10-.4-3.2-.7-6.3-1.1-9.5-.1-.9-.2-1.7-.4-2.6-.2-1-1.2-1.6-2.2-1.4-.9.2-1.5.9-1.4 1.9.1 1.3.2 2.5.4 3.8.3 3.4.8 6.8 1.2 10.2zM99.6 289.4c.4.3.7.5 1.1.8l-.9-1.2c-.1.1-.2.2-.2.4zM282.9 83.1c0 .1.1.1.2.2.3.3.8.6 1.6 1.1.1 0 .2-.1.2-.1.1 0 .1-.1.2-.1 2.4-3.9 4.8-7.7 7.1-11.6.1-.1 0-.3 0-.5-.2-.2-.3-.5-.5-.7 1.5-.4 1.5-.4 2.2-1.5 1.9-3.1 3.8-6.1 5.7-9.2.2-.3.3-.6.4-.9-.3-.3-.6-.5-1-.7-.5-.3-.9-.5-1.5-.9l-.9 1.2c-1.6 2.6-3.3 5.3-4.9 8-.4.7-1.1 1.2-.9 2.1 0 .2-.2.5-.4.6-.9.6-1.3 1.6-1.9 2.4-1.6 2.7-3.2 5.3-4.9 8-.7 1.1-1 1.7-1 2.1 0 .1 0 .3.1.4.1 0 .1 0 .2.1zm100.6 248.3c-3.7-2.7-7.4-5.4-11-8-.4-.3-.8-.8-1.6-.5-.4.7-.7 1.4-1.1 2.2.2.3.3.5.5.6l21.9 15.9c.1.1.3 0 .5.1.3-.8.7-1.6 1.1-2.6-.7-.5-1.2-1-1.8-1.4-2.8-2.2-5.6-4.3-8.5-6.3zM57 247.3c-.2.1-.4.2-.6.4.2.3.4.5.5.8.3-.2.5-.4.8-.6.3.8.6 1.4.9 2.2 6.3-1.8 12.6-3.5 18.9-5.2-.3-1-.6-2-.8-3-7 1.7-16.5 4.3-19.7 5.4zm1.3-13.9c-.7.1-1.4.2-1.9.7-.1.6-.2 1.1-.3 2-.2-.8-.3-1.3-.5-1.7-.1-.2-.4-.3-.6-.3-.3.1-.7.3-.7.5-.1.9-.1 1.7.5 2.5 1.4-.2 2.8-.4 4.2-.7 4.5-.9 8.9-1.7 13.4-2.6.7-.1 1.4-.3 2.1-.5-.2-1-.4-2.1-.6-3.1-5.1 1.1-10.3 2.1-15.6 3.2zm-22.4 6.4c.2.4.3.7.5 1 2.5-.2 14.7-2.6 16.8-3.3-.1-.9-.3-1.7-.4-2.6-.9-.3-1.7-.1-2.4.1l-21.3 4.2c-.8.2-1.7.3-2.5.8 0 .9-.2 1.8.5 2.8 2.8-.5 5.7-.9 8.4-1.7.1-.6.2-.9.4-1.3zM260.6 52.9c.7-1.5 1.1-3 1.6-4.5.1-.3-.3-.7-.5-1.1.6-.1 1-.4 1.2-1 .6-1.8 1.2-3.6 1.8-5.5.1-.4.2-.7.3-1.2-.7-.3-1.3-.6-1.9-.9.8-.5 1.1-1.1 1-2 .6.1 1.1.2 1.8.4.9-1.5 1.1-3.2 1.7-4.7.4-1 .9-2 .9-3.2-.9-.7-1.9-.9-3-1.1-1.6 3.9-2.6 7.9-4 11.8-1.4 4-2.7 8-3.9 12 .9.5 1.9.8 3 1zM66.9 196.8c-.8 0-1.6-.2-2.4.2-.1.1-.3.1-.4 0-.8-.6-1.7-.2-2.6-.5-.7-.2-1.3-.1-1.8.4-.4.4-.6-.2-.9-.2-.1.5-.3 1.1-.4 1.6-.2.8.2 1.2 1 1.2.3 0 .7 0 .9-.1.3-.2.4-.6.6-.8l.3.9c.7 0 1.4.1 2.1.1 1.4 0 2.7.1 4.1.1 1.6.1 3.2.1 4.9.2.1-1 .1-2.1.2-3.1-1.9.1-3.7.1-5.6 0zM217.5 62c.9-.1 1.3-.4 1.3-1.3l.3-5.7v-1.2c.2-3.8.3-7.6.5-11.5 0-.5.1-1-.4-1.4-.4-.1-.9-.2-1.4-.4.5-1 1.5.2 2-.8.2-1 .1-2.2.1-3.4 0-.2-.1-.4-.3-.7-.9.3-1.8.5-3 .9 0 1.6-.1 3.1-.1 4.5-.1 3.3-.3 6.7-.5 10l-.3 8.4v1.4c.3.8 1 1.2 1.8 1.2zM59.9 223.3c-.2.6-.3 1-.4 1.5-.6-1.2-.6-1.2-1.5-1.2-.7.1-1.5-.1-2.1.4-.5.9-.9 1.9-.2 2.9l8.4-.9c3.1-.4 6.1-.8 9.2-1.1-.1-1.1-.3-2.1-.4-3.2-4.4.6-8.7 1.1-13 1.6zm99.6-183.8c.8 2.9 1.6 5.8 2.4 8.8.3 1 .7 1.9 1.7 2.4-.2.2-.5.4-.8.6l.9 3c1.1.1 2.1.3 3-.5 0-.3-.1-.6-.1-.8-1.3-4.7-2.6-9.4-3.9-14-.7-2.4-1.3-4.7-2-7.1-.2-.5-.4-1-.7-1.5-.3-.5-1-.6-1.5-.4-.6.2-1 .6-1 1.2 0 .7.1 1.4.3 2.1.5 2 1.1 4.1 1.7 6.2zM30 230c.8 0 1.6 0 2.4-.1 2.8-.3 5.5-.7 8.3-1 3.6-.5 7.3-.9 10.9-1.4.9-.1 1.9-.2 2.7-.7.1-.9.1-1.7-.4-2.4-2.9-.4-5.8.4-8.7.7-3 .3-6 .8-8.5 1.1-.9.5-.5 1.3-1.2 1.5-.2-.3-.3-.7-.6-1.1-1.9-.1-3.5.2-5.1.6-.6.1-.9.8-.9 1.5s.4 1.3 1.1 1.3zm305.9 52.6c-.3 0-.7-.2-.7-.5-.2-.8-.9-1.1-1.5-1.5l-11.4-6.9c-.5.9-1.1 1.8-1.6 2.7 5.6 3.5 11.3 6.9 16.9 10.4.2.2.6.2.9.2.3-.9.6-1.7 1-2.7-1.1-.7-2.1-1.6-3.6-1.7zm2.6 4.5c.1 0 .1 0 0 0zm17.4-122.6v3.1c7.6-2.1 14.8-4.1 22.1-6.2.3-.1.6-.3.9-.4-.5-.9-.6-1.9-1.3-2.5-.3 0-.4-.1-.6 0-6.8 1.9-13.7 3.8-20.5 5.7-.1 0-.4.2-.6.3zm-60.5-73.3c.3.2.7.5 1.2.7.4.2.9.3 1.4.5 4.2-5.7 8.2-11.4 12.3-17.2.1-.2.1-.4.2-.6-.6-.9-1.7-.9-2.7-1.5-1.4 2-2.7 3.7-3.9 5.5-2.6 3.6-5.2 7.2-7.8 10.9-.4.4-.9.8-.7 1.7zM83.8 285.7c-1.6 1-3.2 2.1-4.8 3.1-1.5 1-3.2 1.9-4.6 3-1.5 1.2-3.3 1.8-4.6 3.2-.2 1.1.3 1.9 1.3 2.8 1.7-1.1 3.2-2.3 4.8-3.3 1.6-1 3.1-2 4.6-2.9 1.6-1 3.3-2 4.8-3.1 1.6-1.1 3.3-1.9 4.7-3.3-.4-.9-.8-1.7-1.5-2.5-1.6 1-3.2 2-4.7 3zM185.7 31.4c-.1 0-.1.1-.2.3.1 1.1.2 2.4.4 3.7.2 1.7.4 3.5.7 5.2.1.5.4.9.5 1.3.1.5-.2 1.1-.1 1.6.2 1.8.4 3.6.7 5.4.1.4.3.7.4 1.1.6-.2 1-.4 1.5-.5.5-.1 1.1-.2 1.7-.3v-1.5c-.2-1.7-.4-3.5-.6-5.2-.4-3.2-.9-6.3-1.2-9.5-.4-3.4-.9-3.3-3.8-1.6zm148.2 218.3c1.8.7 3.7 1.1 5.4 1.8 1.5.6 3 1 4.6 1.5.6-.9 1.1-1.7 1.6-2.5 0 0-.1-.1-.1-.3-.3-.1-.7-.3-1-.5-3.4-1.1-6.9-2.2-10.3-3.4-.3 1-.6 1.9-.9 2.9.2.3.5.4.7.5zM226 62.5c.2 0 .4-.1.6-.2.5-.9 1-1.6 1.1-2.7.3-3.2.7-6.3 1.1-9.5.2-1.8.5-3.6.8-5.5.1-.6.1-1.3.1-1.9 0-.6.4-1.2 0-1.9-.9-.2-1.8-.2-2.7-.1-.7 3.6-1.6 10.7-1.5 12.2.4.1.9.3 1.3.4 0 0-.1.1-.1.2-.4.1-.8.1-1.3.2-.7 2.4-.7 4.7-1 7-.3 1.5.1 1.9 1.6 1.8zm32.6 283.4c.1.3.4.5.6.7.8-.3 1.6-.5 2.1-1.1-.2-1.1-2.8-8.3-4.9-13.9-.9.4-1.8.7-2.7 1 1.6 4.5 3.2 8.9 4.9 13.3zM332.8 124c-.2.1-.3.4-.5.6.3.5.7 1.1 1 1.6.4.5.9.6 1.5.2l3.6-2.4c3.6-2.3 7.1-4.6 10.7-6.9.7-.4 1.2-1 1.9-1.4l-2.7-1.8c-5.2 3.4-10.3 6.8-15.5 10.1zm18.2-8.3s0 .1 0 0c.1.1 0 0 0 0zm-267.8 198c.7.2 1.2.4 1.6.6.5.2.9.6 1.5.9 1.2-1.5 3.1-2.1 3.7-4 .1-.2.4-.5.5-.4.8.2 1.2-.3 1.6-.8 1.3-1.3 3.1-2.2 4.1-3.9.1-.1.3-.1.4-.2 1-.8 2-1.5 3-2.4.3-.3.5-.8.8-1.2-.6-.6-1.2-1.2-2-1.9-5.1 4.5-10.1 8.8-15.2 13.3zM253.5 48.8c1.4-5.1 2.9-10.3 4.3-15.4.1-.5.2-.9.2-1.4 0-.8-.5-1.4-1.2-1.6-.7-.1-1.4.3-1.7 1-.2.4-.3.9-.4 1.4-.7 2.5-1.3 4.9-2 7.4-.1.5-.1.7.3 2.1.1.5 0 1 0 1.5-.4.1-.8-.3-1.2.1-.4 1.4-.9 3-1.3 4.5-.1.4-.1.8-.1 1.2.9.3 1.7.6 2.6.9.1-.7.3-1.2.5-1.7zM105.4 330.3c1.8-2.1 3.6-4.2 5.4-6.4.2-.2.3-.5.4-.8.1-.2.2-.4.3-.5 1.6-.9 2.5-2.4 3.6-3.9-.7-1.2-1.3-2-2.3-2.6-1.9 1.7-9.6 11-10.5 12.5.4.4.7.8 1.1 1.1.4.4.9.7 1.3 1 .3-.1.5-.2.7-.4zm124.1 27.5c-.3-2.3-.5-4.6-.9-6.9-.4-2.2-.2-4.5-1-6.6-.1-.2 0-.4 0-.6 0-1.4-.1-1.6-1.4-1.3-.7.2-1.4.3-2 .5.7 8.5 1.1 11.8 1.8 13.8l1.8.3c.8.2 1.1.5 1 1.4-.1.5-.2.9-.3 1.3-.4.1-.7.2-1 .3-1.2.5-1.3.6-.9 2.2 1.1-.2 2.1-.8 3.2-1.4-.2-1.1-.2-2.1-.3-3zM96 291.9c-1.7 1.3-3.3 2.5-4.9 3.8-1 .8-1.9 1.6-3 2.4-2.5 1.9-5 3.7-7.4 5.6-.4.3-.7.6-1.1 1-.4.4-.4 1.1-.1 1.6.4.5 1.1.8 1.7.5.5-.3.9-.6 1.4-.9 4.6-3.5 9.1-7 13.6-10.6.4-.3.8-.7 1.2-1.1-.3-.5-.5-.9-.8-1.3 0-.4-.3-.6-.6-1zm26.5-240.2c.5.9 1.2 1.7 1.7 2.6.5 1 .9 2 1.4 3 .1.1.2.3.3.4.1.1.2.2.4.3.3 0 .6-.1.9-.1.7.6.1 1.1-.2 1.7 1.2 2.3 2.4 4.7 3.9 7 .5-.1 1-.2 1.4-.3.5-.1.9-.1 1.4-.1.1-.5 0-.9-.3-1.3-.4-.8-.8-1.5-1.3-2.3-1.1-2.1-2.3-4.2-3.4-6.3-1.1-2.1-2.4-4.1-3.4-6.3-.2-.4-.4-.7-.7-1-.4-.5-1.2-.6-1.7-.3-.6.3-1 .9-.8 1.6 0 .6.2 1 .4 1.4zM90.7 73.6c1.8 2.1 3.6 4.2 5.5 6.3.6.7 1.2 1.3 1.8 1.9.3.3.7.3 1 .3 0 .3-.2.6-.1.8.1.3.4.5.6.7.9.9 1.5 2 2.6 2.7.9-.6 1.8-.9 2.2-1.9-.9-1.1-1.8-2.1-2.7-3.1-.2-.2-.5-.4-.7-.6-2.4-3.3-5.3-6.1-7.9-9.3-.3-.4-.7-.7-1-1-.5-.4-1-.3-1.6 0-.6.4-.9 1.2-.6 1.9.3.6.6 1 .9 1.3zm50.5 258.3c-.3.5-.5 1-.7 1.5-.2.5.2 1.1.7 1.4.4.2 1 .2 1.3-.2.3-.4.6-.9.9-1.4 1-1.9 1.9-3.9 2.9-5.8-.7-.4-1.4-.7-2.2-1.1-.9 1.9-1.9 3.8-2.9 5.6zm-89-42.7c-1.5.8-3.1 1.6-4.6 2.6.1.8.2 1.5.4 2.4-.6-.7-1-1.3-1.5-1.9-2.9 1.6-5.7 3.1-8.5 4.7-.2.1-.3.4-.5.6.2.6.5 1.3.7 1.9.5.2 1 .3 1.4.4 2.1-1.1 4.1-2.2 6.2-3.3.5-.3.7-.4.9-.9.1-.2.1-.4.3-.7.2.1.4.3.6.4 2.4-1.1 4.7-2.2 6.8-3.7-1-1.7-1-1.7-2.2-2.5zM51 249.1c-.6.1-1 0-1.3.1-5.1 1.4-10.1 2.8-15.2 4.2-.4.1-.7.3-1.1.5-.6.3-.8 1.1-.6 1.7.2.6 1 1.2 1.7 1.1.3 0 .6-.2.9-.3 5-1.3 9.9-2.8 14.9-4.2.2-.1.4-.2.7-.4v-2.7zM183.8 72.6c-.3 0-.5-.1-.7-.1h-.5c-.8.2-1.1.6-.9 1.4.1.6.3 1.3.5 1.9.8-.1 1.7-.3 2.5-.4-.2-.9-.4-1.9-.9-2.8zM331.3 101c0-.1 0-.2.1-.4-.2-.3-.5-.6-.9-.9-.3-.3-.5-.8-1.3-.8-1.5 1-2.8 2.5-4.3 3.7-1.6 1.2-3 2.6-4.5 3.9-1.5 1.3-3 2.6-4.4 4 .4 1 1.1 1.7 1.8 2.2.3-.1.5-.2.7-.4 4.1-3.5 8.2-7.1 12.2-10.7.2-.1.3-.3.6-.6zm-72.1-43.7c.1-.4 0-.9-.1-1.3-1.1.1-2 .2-3 .2-.8 1.2-1 2.7-1.5 4-.5 1.3-.9 2.5-1.2 3.8-.3 1.4-1 2.6-1.4 4-.4 1.4-1 2.6-1.2 4.2 1 .3 1.9.5 3 .8 1-2.2 1.6-4.2 2.1-6.3.1-.4-.2-.7-.6-.9-.4-.1-.8-.2-1.1-.3.2-.6.6-.7 1.1-.6.4.1.7.1 1.2.2.4-1.2.7-2.2 1.1-3.3.1-.1.1-.3.1-.4 0-.3-.3-.6-.5-.8.3-.1.6-.2 1-.3.3-.9.7-1.9 1-3zM80.4 78.8c.5-.2.8-.3 1.3-.5-.1.3-.1.5-.2.7-.1.2-.1.4-.1.6.7.9 2 2.2 3.3 3.6l1.6 1.6c.9.9 1.8 1.7 2.5 2.5.6.6 1.1 1.1 1.6 1.5.7-.8 1.5-1.3 2-2.2-.3-.3-.5-.6-.7-.9-3.2-3.3-6.6-6.5-9.8-9.8-.3-.3-.7-.6-1.2-.8-.7-.4-1.7.1-1.9.9-.2.6-.1 1.1.3 1.6.4.4.9.8 1.3 1.2zM353.2 212c3.7.2 7.3.4 11 .6 2 .1 4 .1 6 .1.1 0 .2 0 .2-.1.1 0 .1-.1.3-.2.1-.7.3-1.6.2-2.4-.3-.1-.4-.3-.5-.3-2.4-.2-4.8-.3-7.2-.4-2.7-.1-5.4-.3-8.1-.4-.7 0-1.4-.2-2.2.2.1.4.2.9.2 1.3s-.2.9-.2 1.3l.3.3zm-38.3 86.5c.4.3.7.6 1.1.9.5.3 1.1.2 1.5-.2.4-.4.5-1.1.1-1.5-.4-.5-.9-.9-1.4-1.3-2-1.7-3.9-3.4-5.9-5-.5.7-1.1 1.3-1.6 2 2.1 1.6 4.2 3.3 6.2 5.1zm20.6-26.1c.5-.9 1.1-1.7 1.2-2.9-2.1-1.4-4.5-2.4-6.7-3.6-.9-.5-1.9-1-2.9-1.5-.5 1.1-1 2.1-1.5 3.2 3.9 2 8.7 4.4 9.9 4.8zM244.7 71.8c.8-.2 1.7-.4 2.5-.6.2-.6.4-1.1.5-1.6.1-.8.6-1.7.3-2.6.8-.6.8-1.5 1-2.3.4-1.2.7-2.4 1.1-3.7.5-1.9 1-3.8 1.6-6.1-1.1-.2-1.9-.9-2.9-.6-.2.3-.3.5-.4.7-.9 3.4-1.9 6.8-2.8 10.1-.1.3-.2.6-.1.9.1.3.3.6.5.8-.4.3-.9.5-1 .7-.4 1.1-.7 2.3-1 3.4 0 .5.4 1 .7.9zM349 156.7c1.8-.6 1.6-1.2 1.1-2.5l-.3-.6c-.2-.3-.5-.4-.8-.2-.3.1-.5.3-.6.4.3.6.5 1.1.7 1.6 0 .1-.1.3-.2.4-.1.1-.3 0-.4-.1-.5-.5-.9-1.1-1.3-1.6-.3 0-.5 0-.6.1-.7.4-1.3.9-2.1 1.1-.7.2-1.5.2-2.3.5-1.6.7-3.3 1.2-4.9 1.8-.4.1-.8.2-1.1.5-.7.8-1.7.8-2.5.9-.4 1.2-.8 2.2-1.3 3.7 1.2-.5 1.8-.8 2.5-1 4.6-1.6 9.3-3.4 14.1-5zM104.9 308.4c-1.1.8-2 1.8-2.9 2.7v1c-1.3.3-1.3.3-2.1 1l-7.6 7.6c-.2.2-.4.5-.6.8.6.6 1.1 1.2 1.6 1.9.4-.2.6-.4.9-.6l11.5-11.5c.3-.3.4-.6.6-1-.3-.6-.6-1-.9-1.5 0-.1-.2-.2-.5-.4zm238-96.7c1 .1 2.1.1 3.1.1 1.1 0 2.2.1 3.3.1 1 0 2 .4 3.1 0 .1-1-.1-1.9-.3-2.9-.8-.1-1.5-.1-2.2-.1-1.5-.1-3-.1-4.5-.1l-5.7-.3v3.1c1.1-.1 2.2 0 3.2.1zm-6-103.2c.4-.4.3-1.1-.1-1.5-.6-.6-1.2-.8-1.9-.3l-4.5 3.6c-.2.2-.4.4-.7.6-2.9 1.9-5.5 4.1-8.1 6.3-.1.1-.1.3-.2.5.2.2.5.5.8.7 0 0 .3-.2.5-.4.3.3.5.7.8.9.8-.3 1.4-.6 1.7-1.3 0-.4-.4-.8 0-1.2.4.1.8.2 1.3.4.2-.1.4-.2.6-.4 3-2.3 6.1-4.7 9.1-7 .1-.3.4-.6.7-.9zm1.6-52.2c.2-.3.4-.6.6-.8 2.3-2.7 4.7-5.4 7-8.1.3-.4.6-.7.5-1.3 1.3-.5 1.9-1.6 2.7-2.6.5-.7.3-1.8-.3-2.4-.6-.5-1.8-.6-2.4 0-.7.7-1.5 1.4-1.9 2.3.4.7.8 1.2 1.1 1.8-.6-.3-1.2-.6-1.9-.9-.2.2-.5.3-.6.5-2.4 2.8-4.8 5.7-7.3 8.5-.3.3-.5.6-.3 1.2.9.5 1.6 1.5 2.8 1.8zm-137.2 2.8c0 .4.2.7.3 1.2 1-.1 1.8-.3 2.5-.8.3-3.3-.3-6.4-.4-9.6 0-.7-.7-.8-1.2-1 .3-.2.7-.3 1.1-.5.1-1.5 0-3-.1-4.5 0-.2-.1-.5-.2-.7-.2-.7-.8-1-1.5-.9-.6.1-1.1.5-1.1 1.1 0 .5-.1 1 0 1.4.2 4.7.4 9.5.6 14.3zm-46.6 272.6c.7.1 1.4.3 2.2.4-.8-.3-1.7-.7-2.5-1l.3.6zm0 .1c-.5 0-1-.1-1.2.5-.2.4-.3.7-.5 1.1-.4.7-.1 1.2.5 1.6-1.1.3-1.2.3-1.5 1-.7 1.5-1.3 3.1-1.9 4.5.3.6 1.2.5.9 1.3-.4 0-.9-.1-1.4-.1-.8 1.9-1.6 3.7-2.4 5.6.4.4.8.6 1.1 1 .3.5.6.9 1.3.8.5-.8 1.9-4 3.3-7.3.7-1.5 1.3-3.1 1.9-4.5.1-.2.2-.4.2-.6.7-1.7 1.2-3.1 1.3-3.6-.5-.5-1-.9-1.6-1.3 0-.1 0-.1 0 0 0-.1 0-.1 0 0zm207-210.3L359 123l-2.7 1.5c-.9.5-1.9.9-2.6 1.6-.8.8-1.9.5-2.7 1.3-.2.2-.5.4-.8.6.3 1 .7 2 1.5 2.8 3.8-1.7 10.5-5.4 11.9-6.6 0-1.1-.3-2.1-1.1-2.9-.3 0-.6.1-.8.2zM235.3 413.6c-.4-.3-.4-.8-.2-1.3.2-.4.7-.8.7-1.2 0-1.8-.1-3.6-.8-5.4-1.2 0-2.2-.4-3.4.1.4 1.7.1 3.5 1.1 5.1.4.1.9.2 1.4.3-.6.1-1 .2-1.8.4.3 2.4.5 4.6.9 6.8 0 .2.1.3.1.5.3.9 1 1.3 1.8 1.3.8-.1 1.6-.7 1.6-1.5 0-1.9.4-3.8-1.4-5.1zm104.6-169.2c1.1.3 2.1.6 3.2.9.8.2 1.5-.2 1.6-1 .1-.6-.2-1.1-1-1.4-.4-.1-.7-.3-1.1-.4-2.3-.6-4.6-1.3-6.9-1.9-.2.8-.4 1.7-.7 2.5 1.7.4 3.3.8 4.9 1.3zM179.2 350.3c.3.3.5.6.8.9-.4.1-.6.2-.8.3-.3.1-.5.4-.4.8.1.2.2.5.4.5.7.2 1.4.3 2.4.5-.1-.8-.2-1.5 0-2.1.1-.2.2-.4.4-.6.5-2.6 1-5.1 1.5-7.7.2-1 .1-1.1-1-1.8.4-.1.9-.2 1.5-.3 0-.4.1-.8.1-1.1-.9-.2-1.9-.3-2.8-.5-.8 3.6-1.5 7.3-2.1 11.1zM34.2 81c3 2.2 6.1 4.4 9.1 6.6.3.2.6.6 1.2.4.2-.2.5-.4.7-.7.3-.4.6-.7 1-1.3-.4-.4-.6-.6-.9-.8-3.2-2.4-6.4-4.7-9.7-7.1-.3-.2-.5-.4-.8-.5-.7-.4-1.5-.2-1.9.4-.4.5-.4 1.5.1 2 .4.4.8.7 1.2 1zm246.7 240.8c1.2 1.9 2.4 3.9 3.9 5.8l2.7-1.8c-.4-1.1-1-2.1-1.8-2.8-.8-.8-.9-1.9-1.6-2.7-.7-.8-1.2-1.8-1.8-2.7-.9.7-1.9 1.3-2.9 1.9.5.7 1 1.5 1.5 2.3zM74.3 161.1c-1.3-.9-2.7-1.3-4.1-1.7-.6-.2-.9.1-1.2.8-.2-.7-.3-1.2-1-1.5-3-1.2-6-2-9.2-3-.1 1-.8 1.8-.5 2.9.7.5 1.5.7 2.3.8.4-.2.6-.5.8-.8.2-.2.4-.4.7-.4h.3c.1.1.1.3.2.5s.1.3.2.3c1.1 0 .1 1 1 1.5 1.3.4 3.1.8 4.7 1.5 1.7.7 3.4 1.1 5.3 1.6.1-.5.2-.9.2-1.2.2-.5.2-.9.3-1.3zm49.4 174c.2-.1.5-.1.6-.3 1-1.3 2-2.7 2.9-4.1.5-.7.2-1.6-.5-2.1-.9-.6-1.6-.5-2.2.4-1.9 2.6-3.7 5.2-5.6 7.8-.7 1-1.3 1.9-2 2.9.7.7 1.4 1.3 2 1.8.1.1.4.1.4 0 .1-.2.2-.4.1-.6-.1-.2-.3-.3-.4-.5-.1-.1 0-.3 0-.5.4.1.7.2 1.3.5.6-.8 1.3-1.6 1.7-2.4.5-.8 1.6-1.4 1.2-2.7 0 .1.3-.1.5-.2zm9.8-288.7c.7 1.5 1.3 3.1 2.1 4.6.3.6.6 1.2 1 1.6.2.2.8.1 1.4.1-.3.5-.6.9-.9 1.5.3.6.5 1.5 1.1 2 .7.6.1 1.6.9 1.9.8-.1 1.6-.3 2.3-.4.1-.3.3-.5.4-.8-1.8-4.1-3.7-8.1-5.5-12.1l-.3-.6c-.4-.7-1.1-.9-1.8-.7-.7.3-1.1.9-1 1.7-.1.3.1.8.3 1.2zm1.5 44.3c-1.2-1.8-2.1-3.7-3.6-5.3-.8.7-2.1.7-2.7 1.8 1.6 2.6 3.2 5.1 4.9 7.7 1-.6 1.9-1.2 2.9-1.8l-1.5-2.4zm-62.2 88.4c-.7.8-.8 1.7-.6 2.9.8.1 1.6.3 2.3.5.2-1 .4-2.1.6-3.1-.8-.1-1.6-.2-2.3-.3zm44.9-79.1c-.5.1-.8.2-1.3.3l.6-1.2c-.8-.9-1.5-1.9-2.6-2.7l-1.8 2.4 6.3 7.2c.8-.7 1.6-1.4 2.4-2-1.2-1.4-2.3-2.8-3.6-4zm178.6 222.3c.8-.4 1.6-.8 2.4-1.5-2.5-3.4-5.1-6.6-7.6-9.9-.8.7-1.6 1.3-2.4 2 2.2 3.1 6.4 8.3 7.6 9.4zm-170.6 16.1c-.3.4-.5.6-.7.9-2.1 3.4-4.2 6.8-6.2 10.2-.1.2-.1.5-.1.8.6.5 1.3 1.1 2.1 1.7 1.1-1.3 1.8-2.7 2.7-4 .8-1.3 1.7-2.5 2.3-3.9.6-1.4 1.9-2.5 2.4-4.1-.2-.2-.4-.4-.6-.5-.6-.4-1.1-.7-1.9-1.1zm227.9-148.5c-.1-.8-.1-1.6-.2-2.7-2.5.1-4.8.5-7 .8-2.3.3-4.6.3-6.8 1-.1 1-.2 2 .3 2.8 5.4-.3 11.4-1.2 13.7-1.9zM271 325.8c.7 1.3 1.3 2.8 2.2 3.9.9 1.2.8 2.9 2.2 3.7.9-.3 1.9-.4 2.4-1.5-.1-.3-.2-.6-.3-.8-1.4-2.6-2.8-5.2-4.3-7.8-.9.5-1.8 1-2.7 1.6.2.3.3.6.5.9zM90.4 121.9c1 .7 1.8 1.5 3 2 .4-.4.7-.8 1-1.1.3-.4.7-.7.6-1.4-.7-.8-1.8-1.4-2.7-2.1-.4-.3-.8-.4-1.3-.6-.1-.1-.3-.1-.3-.1-.1-.6-.6-.9-1.1-1.2-.9-.5-1.7-1.2-2.5-1.8-.9-.7-1.9-1.4-3-2.1-1.4.4-1.7 1.3-1.9 2.4.8.9 1.8 1.4 2.7 2.1.9.7 2 1.1 2.8 2 .7.7 1.8 1.2 2.7 1.9zm283.8 64.3c-.2-1.1-.7-1.6-1.7-1.4-.3.1-.6.1-.9.1-.4.5-.7.9-1.1 1.4-.5-.4-.7-.7-1-.9-.3-.2-1-.1-1.1.2-.2.9-.8 1.7-.4 2.7h1.7l5.4-.6c1.9-.2 3.8-.6 5.7-.7 2.9-.2 2.5-.6 1.6-2.9 0-.1-.2-.2-.5-.4-2.4.3-4.9.6-7.4.9 0 .4-.1.9-.3 1.6zM69.4 327.3c.2.1.4.3.5.4.1 0 .1-.1.2-.1h.2c.4.1.7.5 1.2.3 1.1-1 2.3-2 3.4-3.1 0-.5-.1-.8-.1-1.2.4.1.7.3 1 .4 2.2-1.7 4.2-3.6 6.1-5.5-1.5-2.1-1.5-2.1-1.9-2.1-1 .2-.6 1.2-1 1.6-.5.1-1 0-1.2.2-.8.6-1.5 1.2-2.2 1.8-.5.4-.2.9-.3 1.3-.6.2-1.3-.1-1.7.6-.3.5-.6.7-1.2.9-.5.2-.6.7-.3 1.2.1.2 0 .4 0 .7-.3-.3-.6-.5-1-.8-1.1.8-2 1.6-2.6 2.8.6.3.8.5.9.6zm273.1-124.2c4.3 0 10.2-.4 11.7-.7.3-1 .1-1.8-.7-2.5-4 .2-7.9.3-11.9.5-.2.6-.3 1-.4 1.5-.1-.2-.1-.4-.2-.5-.3-.6-.8-.9-1.4-.9 0 .9.1 1.9.1 2.8 1-.1 1.9-.2 2.8-.2zM321.1 95.6c.3-.3.6-.7.9-1.1.1-.2.1-.5.1-.7-.3-1-1.4-1.5-2.2-.8-.3.2-.6.5-.9.8l-8.8 8.8c-.3.3-.5.6-.7.9.5.9 1.4 1.1 2.1 1.6.4-.3.7-.5 1-.8 2.8-2.9 5.6-5.8 8.5-8.7zm-89.4 309.2c.5-.1.9-.2 1.4-.2 1.4 0 1.9-.4 1.8-2.1 0-.4 0-.8-.1-1.2-.4-2.8-.7-5.7-1.1-8.5 0-.1-.2-.3-.3-.4-1.1-.2-2.1-.1-3.2.4-.1.3-.2.5-.1.7.3 2.5.6 5.1.9 7.6.1.7.6.8 1 1-.2.2-.3.3-.4.5.6.6 1.4-.2 2 .6-.6.2-1.1.4-1.6.6-.6.1-.5.6-.3 1zm142-112.4c1.1-1.4 1.1-1.4 1.2-2.8-3.4-2.1-7-3.9-10.7-5.7-.7.8-1.3 1.5-1.6 2.5.9.5 1.7 1.2 2.6 1.5.6 1.1 1.8 1.4 2.8 1.8 1 .4 1.7 1.1 2.7 1.5 1.1.4 1.9 1.1 3 1.2zm22.4-125.3c-1.6.3-3.1.6-4.7.9-.7.1-.7.2-.7 1.4 0 .1-.1.3-.2.4-.1.1-.3 0-.4-.1-.4-.3-.8-.7-1.3-1.1-1.8.4-3.7.6-5.5 1.2-.3 1.1 0 1.9.6 3 2.4-.5 4.7-.9 6.9-1.4 2.2-.5 4.6-.6 6.8-1.5-.2-.9-.4-1.8-.6-2.6-.4-.1-.7-.2-.9-.2zM263.6 331.5c.9 1.9 1.7 3.8 2.6 5.6.1.2.4.2.6.4.7-.7 1.3-1.4 2-2-1.2-3-2.4-5.8-3.4-8-1 .5-1.9.9-2.9 1.4.3.9.7 1.7 1.1 2.6zM41.2 176c.4-.3.5-.5.7-.6.2-.1.6 0 .6 0 .2 1.2 1.2 1.1 2 1.2.2 0 .5-.1.6-.3.3-.5.5-1 .7-1.5.1-.5-.2-1-.7-1.1-2.1-.5-4.2-.9-5.9-1.3-1 .1-.7 1.1-1.6 1 0-1-.5-1.5-1.6-1.6-.7-.1-1.4-.3-2.1-.4-.5-.1-1.1 0-1.6 0-.6.8-.9 1.7-.9 2.7 2.3.4 4.5.9 6.6 1.3 1.1.3 2.1.4 3.2.6zm298.3 5.5c3.5-.7 7-1.3 10.5-2 .4-.1.7-.3 1-.5 0-1-.3-1.8-.7-2.6-.9-.2-1.6.1-2.3.6-.1.5-.1.9-.2 1.3-.2-.5-.3-1-.5-1.6-3.4.8-6.7 1.1-9.9 2.1.1 1 .4 1.9 1 2.7h1.1zm-191.2 202c-.2.4-.5.7-.6 1.1-.5 1.4-1 2.9-1.4 4.3-.5 1.4-1 2.9-1.4 4.3-.3 1 .2 2 1.1 2.3.8.3 1.6-.2 2.1-1.1.2-.4.3-.9.5-1.3.7-2.3 1.5-4.5 2.2-6.8.2-.5.5-1 .1-1.7-.8-.4-1.7-.7-2.6-1.1zM270.9 88.8c-.7-.7-1.4-.5-2.3-.4-.1.2-.2.4-.3.7.7.4 1.5.8 2.2 1.2.1-.5.2-1.1.4-1.5zm98.3 86.9c3.4-.6 6.7-1.3 10.1-2 .4-.1.7-.3 1.1-.5 0-1.1-.3-2-.8-2.8-3.4.6-6.6 1.3-9.9 1.9-1.6.3-1.9.7-1.8 2.2 0 .3.1.6.2 1.1.4.1.8.1 1.1.1zm-65 126.5c.7-.5 1.2-.9 1.8-1.4 0 .4 0 .8-.1 1.2-.1.5-.3.9-.5 1.5 2.4 2.5 4.9 5 7.4 7.4.3.3.7.4 1 .6.9-.4 1.6-.8 2.2-1.5-.1-.2-.2-.5-.4-.6l-8.3-8.3c-.3-.3-.7-.4-1-.5-.5-.9-1.1-1.8-1.8-2.4-.7.8-1.5 1.6-2.2 2.3.6.6 1.2 1.2 1.9 1.7zM70.8 151.7c1.1-1 .9-2.1.2-3.2-.4-.2-.9-.4-1.4-.7-1.8-.7-3.5-1.5-5.3-2.2-.9-.4-1.7-.8-2.7-1-.5-.1-1 .3-1.6.1 0-.4 0-.8-.4-1-.7-.4-1.4-.7-2.2-1-.7-.3-1.4-.6-2.1-.8-.9.7-1.1 1.7-1.4 2.5.6.7 1.5.8 2.1 1.2.7.3 1.4.6 2.1.8.5-.4.8-1 1.4-.9-.1.5-.2.9-.3 1.5 4 1.5 7.8 3.1 11.6 4.7zm162.8 188c0 .8-.2 1.6 0 2.3.2 1.5.6 3 .9 4.5 0 .2.2.5.3.6.3.4.7.6 1.3.5.5-.1.9-.5.9-1v-.7c-.3-1.6-.7-3.3-1-4.9-.1-.7-.8-.5-1.2-1 .9-.3.8-1 .7-1.6v-.2c-.8.2-1.6.4-2.5.5 0 .4.1.7.6 1zM55.1 198c.2.1.4.2.6.4.3.3.5.9 1.1.8.7-.2.5-.9.5-1.4v-1c-1-.9-1.8-.3-2.5-.4-3-.3-6-.4-9-.6-.4 0-.7.1-1.1.2-.2 1-.3 1.8.1 2.7.7.1 1.4.3 2.1.3 2.3.1 4.6.1 6.9.2.8.2 1-.4 1.3-1.2zm161.1 155.9c0-.1-.1-.3-.3-.7-.5 0-.8-.1-1.2-.1-.4 0-.8 0-1.1.3v3.3c0 2.4.1 4.8.2 7.2 0 .9.2 1.7.4 2.6.1.5.6.7 1.1.7.5 0 1.2-.4 1.2-.9.1-.5.1-.9.1-1.4 0-2.3-.1-4.6-.2-6.9.1-1.4-.1-2.7-.2-4.1zm135.2-86.2c-3-1.3-6-2.6-9-3.8-.3-.1-.7-.2-1-.3-1 1.5-1 1.5-1.2 2.7 1.2.5 2.4 1 3.7 1.5.5-.6.9-1.2 1.3-1.8h.3c.1.8.3 1.6.4 2.6 1.8.8 3.5 1.5 5.4 2.3.6-.6 1-1 1.4-1.5.1-.1.1-.1.1-.2.2-.3.1-.9-.2-1.1-.3 0-.7-.2-1.2-.4zm-180.8-199c-.3 0-.6.2-.9.1-.3-.1-.6-.4-.9-.6-.4-.2-.8-.1-1.1.4.8 3.3 1.8 6.6 2.7 9.9 1-.3 2-.5 3-.8-.9-3.4-2.1-7.7-2.8-9zm-57.3 280.2c-.5-.4-.7-.4-1.7-.4 0 .3 0 .6.1 1-.5-.1-.8-.3-1.2-.3-.3-.1-.6.3-.5.6.2.3.4.6.7 1.1-.3.2-.5.3-.6.3-.9-.5-1.5-.1-2 .6-1 1.4-2 2.9-3 4.3-.2.3-.4.7-.6 1-.4.9.3 2 1.3 2.1.8.1 1.4-.3 1.8-.9.8-1.1 1.7-2.2 2.3-3.3.7-1.2 1.6-2.3 2.4-3.5l1.5-2.1c-.1-.2-.3-.4-.5-.5zM227.5 40.3c.9.2 1.7.2 2.5-.7-.2-1.2 1-2.6-.1-4.1 1.4-1.9 1-4 1.2-6.1.1-1-1.2-1.6-2.1-1.1-.5.2-.8.6-.9 1.1 0 1.6-.8 3.1-.4 4.7 0 .2 0 .4-.1.6-.7 1.6-.4 3.3-.7 4.9 0 .2.4.7.6.7zM53.2 143.9c.3-.8.6-1.6.9-2.5-.2-.2-.4-.4-.6-.5-2.7-1.2-5.4-2.4-8.1-3.5-.4-.2-.9-.2-1.4-.3-.7 0-1.2.4-1.4 1.1-.2.5 0 1.2.5 1.5.3.2.7.4 1 .6 2.8 1.2 5.6 2.4 8.4 3.5.2.2.4.1.7.1zm136.7 199.5c-.6 2.3-1.2 7.5-1.3 10.4.7.4 1.4.9 2.2 1.3.1.1.3 0 .6 0 .6-2.8.6-5.6 1.1-8.4.2-1 .3-2 .1-3.1-1.3-.4-1.3-.4-2.7-.2zM72.7 187.7c-.3 0-.7 0-.9.1-.3.2-.3.7-.7 0-.4-.6-1.1-.6-1.7-.6-1.4-.1-2.8-.1-4.2-.3-.5-.1-1-.5-1.6-.2-.7.3-.5 1.1-.7 1.7-.1.2 0 .5.1.9 3.4.5 6.9.8 10.3 1.2.1-.9.2-1.8.4-2.7-.4 0-.7 0-1-.1zm285 1.5c.2-.3.3-.1.5.1.3.4.7.3 1.1.3l6.9-.9c.1 0 .3-.2.5-.3 0-.5.1-1.1.1-1.8-.3.2-.5.3-.7.4-.5-1.2-.5-1.3-1.4-1.2-2.1.2-4.1.4-6.2.8-.9.2-1.8.4-2.7.3-.3-.1-.7.2-1.3.3.4 1.1.7 1.9 1.1 2.8.8-.2 1.6 0 2.1-.8zm-20.9-16.4c.2 0 .3-.2.4-.2 2.6-.2 4.9-1.3 7.4-1.8.5-.1 1-.4 1.6-.6v-1.3.1c-.2-.5-.5-.9-.8-1.4-.2 0-.4-.1-.6-.1-2.6.7-5.2 1.4-7.8 2.2-.3.1-.4.6-.6.8-.3-.1-.5-.3-.8-.3-.4 0-.5.4-.5.7v1c.1 1.1.4 1.3 1.7.9zM39.1 271.3c2.2-.8 4.5-1.7 6.7-2.5.3-.1.5-.3 1-.6-.5-.9-.4-1.9-1-2.7-2.9 1-5.7 2.1-8.6 3.1-.1.1-.3.1-.4.2-.6.4-.9 1.2-.6 1.9.3.7 1 1.1 1.7.9.4 0 .8-.2 1.2-.3zm273.6 95.8c.3-.5.5-.9.8-1.4-1.3-1.5-1.8-3.4-3.4-4.8-1 .7-2 1-2.6 2 .8 1.2 1.4 2.4 2.3 3.4.9 1.1 1.3 2.5 2.2 3.6.1.1.2.3.3.4.5.7.9.7 1.6.1.5-.5 1-.9 1.5-1.4-.9-1.8-.9-1.8-2.7-1.9zM123.6 95.2c-.4.3-.7.6-1.1.9l-1.4.7c.8 1 1.5 2 2.2 2.9.4.5.9 1 1.3 1.5.8-.6 1.6-1.2 2.5-1.9-1.3-1.6-2.7-3.3-3.5-4.1zm113.5-32c.8-3.4 1.4-6.7 2-10.2-.8-.4-1.6-.9-2.5-.7-.8 2.3-2 8.7-2 10.5.8.4 1.6.8 2.5.4zm45.7 278.1c-1-2.5-3.3-6.7-4.5-8.2-.3.1-.7.2-1 .4-.4.2-.8.4-1.5.8 1.2 2.2 2.3 4.3 3.4 6.3 1.4 2.8 1.1 2.9 3.6.7zm-120.6 26c-.8 2.7-1.6 5.5-2.2 8.2.7 1 1.4 1.6 2.6 1.4 1-2.4 2.4-7.7 2.5-9.2-.7-.4-1.5-.9-2.4-.9-.3.1-.5.3-.5.5zM327 339.6c-.1-.3-.2-.5-.4-.7-1.4-1.6-2.8-3.1-4.1-4.7-.7-.8-1.5-1.4-2.7-1.3-.3.5-1.2.7-1.2 1.6 2.1 2.3 4.1 4.8 6.3 7.1.9-.6 1.6-1.2 2.1-2zm-46.9 20.9c-.3-.3-.6-.5-1-.3-.5.2-1 .4-1.5.7 0 .5-.1.9.1 1.2 1 2.3 2 4.5 3 6.7.2.3.4.6.6 1 1-.2 1.7-.6 2.7-1.3-1.2-2.6-2.3-5-3.5-7.4-.1-.3-.2-.5-.4-.6zm-208.4-149c-.7.1-1.5-.1-2 .5-.1.8-.2 1.6.5 2.1h2.1c0-.9-.1-1.8-.1-2.7-.2.1-.3.1-.5.1zm277.6 40.1c-.4.9-.8 1.6-1.4 2.6 1.7.6 3.1 1.1 4.6 1.6 1.4.4 2.8 1.1 4.4 1.3.2-.5.5-.9.6-1.3.2-.4.6-.8.3-1.5-1.3-.4-2.7-.9-4.1-1.4-1.5-.5-2.8-1.1-4.4-1.3zM338 136.3c.1.1.1.1 0 0 .1.1.1 0 0 0-.2-.3-.4-.6-.7-.9-.2-.2-.4-.3-.6-.4-.6.4-1.4.5-1.7 1.3.1.6.2 1.3.4 2.1-.7-.6-1.3-1.2-1.9-1.7-1.3.7-2.5 1.4-3.7 2-.9.4-1 1.1-.9 2 .5.4 1.1.8 1.6 1.2 1.9-.5 5.1-2.1 7.9-4-.1-.5-.2-1-.4-1.6zM336.7 273c.6.5 1.5 1 2.4 1.6.8.5 1.6.9 2.5 1.3.8.4 1.7.8 2.4 1.1.1-.1.3-.1.4-.3.4-.8.8-1.5 1.3-2.5-1.1-.6-1.9-1-2.7-1.5-.8-.4-1.5-.8-2.3-1.2-.8-.4-1.6-1-2.5-1.2-.8.9-1.1 1.8-1.5 2.7zm-132.9 80c-.7 1.1-.6 2-.6 2.8 0 2.1-.3 4.1 0 6.1 1 .5 1.9.7 2.9.2.1-2.5.3-5 .4-7.4 0-.4-.1-.9-.2-1.4-.9-.1-1.7-.2-2.5-.3zM190 364c-.3-.1-.7 0-.9.1-.8.7-1.5 1.4-2.2 2.2-.2 1.1-.3 2.3-.5 3.5-.2 1.1.2 1.7 1.3 2-1.7.6-1.7.6-1.5 2.1 1.4.6 1.4.6 2.9.2.1-1.9.5-3.8.7-5.8.1-.8-.1-1.5-.6-2.2.5-.5 1.2-.8 1-1.6 0-.1-.1-.5-.2-.5zM65.3 116.2c-1.8-1-3.5-2.2-5.3-3.2-.4-.2-.8-.5-1.3-.6-.8-.2-1.5.1-1.8.8-.3.7-.2 1.5.5 1.9 1.8 1.2 3.6 2.4 5.5 3.3.5-.4.9-.7 1.3-.9.4.3.7.6 1 .7.5.1 1.1.1 1.6.1-.3-1-.7-1.7-1.5-2.1zm1.5 1.9c0 .1.1 0 0 0 .1 0 .1 0 0 0 .1 0 0 0 0 0zM20.9 240.8c-2.6.4-5.3.9-8 1.6-.2 1.2-.2 1.2.4 2.8 1.5.1 5.8-.7 8.4-1.6V242c0-.5-.1-1-.8-1.2zm343.9-93.2c-.1.1-.1.3-.2.5.8.6 1.6 1.2 2.5 1.9.8-.3 1.7-.6 2.6-1 .3-.1.5-.7.8-.8.3-.1.8.2 1.1.1 1.1-.4 2.3-.6 3.4-1.4v-2c0-.2-.5-.3-.8-.4-.1 0-.4.2-.4.4-.1.4.2.9-.4 1.3-.3-.4-.6-.8-1-1.3-2.2.4-4.2 1.7-6.4 2.2-.6.1-.9.3-1.2.5zM79.4 135.2c-1.4-1.2-4.7-3-7-3.8-.8 1.2-.8 1.2-1 3.1 2.1 1.1 4.2 2.4 6.5 3.4.5-1 1-1.8 1.5-2.7zm74.4 231.2c-1 2.3-1.7 4.8-2.4 7.4 1.1.6 2.1.9 3.3.6.7-2 1.3-4 2-5.9.2-.7-.1-1.2-.5-1.7-.8.1-1.4-.8-2.4-.4zm50.2-25v.5c-.2 2.3-.1 2.4 2.1 2 .3-.1.6-.2.8-.2.4-.7.4-1.5.3-2.2h-1.1c-.8-.1-1.5-.1-2.1-.1zm-61.6-254c.7-.4 1.4-.8 2.3-1.4-1.5-2.6-2.5-5-4.1-7.3-.5.2-1 .4-1.4.6-.4.2-.8.5-1.3.8 1.3 2.5 2.5 4.9 3.9 7.1.1.1.3.1.6.2zm216.9 62.3c-2.7.7-5.1 1.9-7.7 2.9.4.9.4 1.9 1.3 2.6 2.6-.8 5.2-1.7 7.7-2.8.3-1.4-.9-1.8-1.3-2.7zM49 187.6c1.9.3 3.8.5 5.7.6.3 0 .6-.4.9-.5.6 1.1.6 1.1 2.2.6.1-.7.2-1.4.4-2.4-1.1-.1-2-.2-2.8-.3-1.8-.2-3.6-.5-5.4-.8h-.7c-.6.1-1.2.6-1.2 1.3-.1.7.2 1.4.9 1.5zm249.2-84.1c-.9-.7-1.8-1.3-2.7-1.9-1.5 1.3-2.6 2.4-3.5 3.6 1 .8 1.9 1.6 2.8 2.5 1.3-1.4 2.3-2.9 3.4-4.2zM157.8 72.7c.6 2.8 2.3 7.1 3.3 8.5.7-.3 1.4-.5 2.3-.8-.8-2.9-1.9-5.6-3-8.2-1.2-.3-1.9.1-2.6.5zm-10.3 2.2l.6.9c-.6.3-.9.8-.6 1.4.9 1.9 1.6 3.8 2.7 5.6 1.1.1 2.1-.1 2.9-.8-1.2-2.7-2.2-5.3-3.7-7.9-.9 0-1.5.2-1.9.8zM4.1 244c-.3 0-.6.3-.8.4-.3.8-.2 1.5-.1 2.2.1.5.6.8 1.1.6l1.5-.6c1 .6 1.8-.2 2.8-.2 1 0 2-.4 3-.7.2-1.1-.2-1.9-.6-2.8-2.5 0-4.7.8-6.9 1.1zm284 113.2c1 1.9 2 3.7 2.9 5.5.2.4.5.8.8 1.2.1.1.3.2.5.3.8-.3 1.6-.6 2.3-1.4-.9-2.4-2.7-5.5-3.8-6.9-1.1.3-2 .6-2.7 1.3zM58.8 261.6c-.7.3-.4 1-.9 1.4-.4-.5-.8-.9-1.2-1.5-1.5.3-2.8 1-4.3 1.5-.4.1-.8.4-1.1.6.4 1.7.4 1.7 1.2 2.7 2.6-1 5.3-2 8.2-3l-1.3-2.6c-.3 0-.5.1-.7.1-.2.4.6.5.1.8zm-26.1-63.2c1.6.1 3.2.3 4.8.3.6 0 1.2-.1 1.8-.2.2-.9.8-1.6.5-2.4-.5-.4-1-.6-1.5-.6-2.1-.1-4.1-.3-6.1 0-.2.3-.3.5-.5.7-.9 1.1 0 2.1 1 2.2zM355 311c-.6.7-1.2 1.4-1.4 2.4.9.9 2 1.5 3 2.3 1 .7 2 1.6 3.2 2.1.7-.7 1.2-1.3 1.8-2-1.1-1.3-4.7-4-6.6-4.8zm9.5-111.7c-1 .1-2.1.2-3.1.3-1 .1-1.3.4-1.3 1.6 0 .2.1.5.1.8.3.1.5.2.6.2 2.3 0 4.6-.1 6.9-.1.3 0 .6-.1.9-.2.5-.2.9-.9.8-1.4-.1-.5-.6-1.1-1-1.2-.3-.1-.6-.1-.9-.1-1 0-2 .1-3 .1zm-8.5-86.6c.1-.9-.6-1.8.4-2.5h.2c.4.3.9.7 1.3 1 .4-.2.9-.3 1-1-.4-.8-.9-1.6-2.1-1.9-2.1 1.5-4.4 2.7-6.5 4.3l.6 3c2-.7 3.5-1.9 5.1-2.9zm-249.5-12c-1.6-2-3.7-4-5.2-5-.9.4-1.3 1.3-1.8 2.3 1.6 1.8 3.2 3.4 5.1 4.9.7-.8 1.3-1.5 1.9-2.2zm33.5-40c1 2.2 1.9 4.2 2.8 6.2.2.3.5.6.7.9.9-.4 1.7-.8 2.5-1.3-1-2.4-1.8-4.7-3.4-6.7-.6.1-1.2.1-1.7.2-.3.2-.6.5-.9.7zm205.9 243.7c-.4.8-1.5 1.1-1.6 2.3 1 .8 2 1.6 3 2.3 1.1.7 2 1.8 3.4 2.2.5-.7.9-1.2 1.4-1.9-1.6-2.1-3.8-3.8-6.2-4.9zm-19-234.9c-.8-.8-1.8-1.2-2.8-1.8-.3.3-.6.4-.8.7-1 1.2-2 2.4-3.1 3.7.8 1 1.5 1.9 2.6 2.4 2.1-1.9 3.5-3.6 4.1-5zm-215.6 36.2c-.8.5-1.5 1.1-1.8 2.2 1.2 1.2 2.3 2.4 3.5 3.5.7-.7 1.5-1.4 2.3-2.1-1.4-1.5-3-3-4-3.6zm39.6-51.2c.8 2.2 1.6 4.4 2.4 6.5.1.4.3.7.5 1.1.1.1.2.2.4.3l1.5-.3c.4.1.2.7.6.6.1 0 .3-.4.2-.6-.3-1.7-.9-3.3-1.8-4.9-.7 0-1.4-.1-2.2-.1.4-.7 1.4-.6 1.7-1.6-.2-.5-.4-1-.7-1.6-1-.2-1.9-.3-2.6.6zM44.4 214c0 .6.6 1.2 1.2 1.3h1c1.1 0 2.2-.1 3.4-.1 1.2 0 2.3 0 3.5-.5v-2.3c-2.8-.2-5.3.2-7.9.3-.8 0-1.3.7-1.2 1.3zM314.7 68.7c1.4-1.5 3.1-4 3.9-5.6-.7-.5-1.5-1.1-2.2-1.7-1.2 1.1-3 3.4-4.2 5.6.7.8 1.5 1.4 2.5 1.7zm-217.3 25c.3-.3.5-.6.8-1-.5-1.2-1.3-1.6-2.2-1.7-.1-.4 0-.9-.2-1.1-.7-.8-1.5-1.6-2.4-2.4-.5.4-1 .7-1.4 1.1-.5.5-.5 1.5-.1 2 1.3 1.4 2.6 2.9 4.3 4.1.5-.4.9-.7 1.2-1zm94.1-40c-.9 0-1.9.1-3.2.1.1 2.3.5 4.2.8 6.1h3c.1 0 .3-.1.5-.2-.1-1-.1-2-.4-3-.4-.9.4-2-.7-3zm232.7 109.5c-.2-.7-.8-1.2-1.6-1.1h-.2c-1.5.3-3 .5-4.5.8-.5.1-1 .4-1.4.7.2.9.3 1.6.4 2.2.4.4.6-.7 1 .1.1.1.4.2.6.2 1.4-.2 2.8-.5 4.2-.8.2 0 .3-.1.5-.1.7-.4 1.2-1.3 1-2zm-336.6-33c-1.2-1.2-3.9-2.8-5.8-3.6-.6.7-1.3 1.3-1.7 2.4 1.9 1.2 3.7 2.4 5.7 3.5.9-.7 1.4-1.5 1.8-2.3zm277 96.1c.8.2 1.5.4 2.2-.2.1-.1.3 0 .4 0 .3.8 1 .6 1.6.7 1.2.2 1.6-.3 1.4-1.4-.1-.5-.3-.9-.8-1.1-.7-.2-1.5-.4-2.3-.6-1-.2-2-.2-3.1-.4-1.6-.2-1.9 0-2.1 1.7 0 .2 0 .5.1.9 1 .2 1.8.3 2.6.4zM269 26.4c.2 0 .4-.2.5-.4.1-.2.1-.5-.1-.6-.2-.2-.5-.4-.8-.7.8-.2 1.7.1 1.6-1.1 0-.2.1-.4.2-.6.5-.7.7-1.6.8-2.5-1-.3-1.9-.9-3.1-.7-.9 1.8-1.3 3.8-2.1 6 1.2.3 2 .7 3 .6zM163.9 55c.2 1.4.5 2.7 1.2 4 .3-.1.7-.1 1.1-.2.5-.1.7 0 .7.5-1.8.3-2 1.2-.7 2.6.9 0 1.7-.2 2.5-.7-.3-2.2-1-4.2-1.7-6.5-1.1.1-2.1-.1-3.1.3zm138.8 271.1c0-1-1.1-1-1.5-1.7-.3-.8-.9-1.5-1.4-2.2 0-.1-.1-.1-.2-.2-.1 0-.1-.1-.2-.1-.7.4-1 .7-1.3.9s-.5.6-.9 1.3c1.4 1.7 2.7 3.5 4.3 5.4.9-.7 1.6-1.2 2.3-1.7-.7-1-.8-1-1.4-.5-.2.2-.3.6-.7.3-.1-.9 1-.8 1-1.5zm-.5-211.5l3.3-3.3c-.2-.7-.3-1.3-.5-1.9-.1-.3-.7-.5-1-.4-.4.2-.5.5-.3 1 0 .1.1.1.1.2-1.5.4-1.5.4-2.6 1.4l-.9.9c.6.7 1.3 1.4 1.9 2.1zm96.2 52.1c-.6.1-.8.5-.7 1.1.1.5.3 1 .5 1.6.4-.2.7-.4.9-.5.5.3.9.6 1.1.6 1.4-.2 2.8-.5 4.2-.8.3-.1.5-.3.9-.5-.2-1-.5-1.8-1.2-2.6-2 .4-3.8.8-5.7 1.1zM373 280.3c.3.1.8.2 1.2.1.6 0 1-.4 1.2-1 .2-.6.1-1.1-.3-1.5-.3-.3-.6-.5-1-.6-1-.4-2-.9-3.2-1.3-.9.7-2.3.4-3 1.8.2.2.2.4.4.5 1.6.6 3.1 1.3 4.7 2zm-145.9 59.8v-.3c-1 .2-2.1.3-3.2.5 1.6.2 1.7.1 3.2-.2zm125.2-62.4c-.3 0-.4.2-.7.4-.2.2-.4.3-.8.1 0-.4.1-.7.1-1 0-.1-.1-.1-.1-.3-1.2-.7-2.4-1.5-3.9-1.9-.7.7-.9 1.5-1.2 2.2.8.8 1.3 1.7 2.3 2.1 1 .4 1.8 1.2 2.9 1.3.7-1.2 1.1-1.7 1.2-2.1.1-.2.1-.3.1-.4.1-.2.1-.3.1-.4zm-62.1-174.5c.5-.7.9-1.2 1.2-1.7.3-.5.5-1 .7-1.5-.8-.5-1.6-1-2.5-1.5-.7 1-1.5 1.9-2.2 2.9.9.7 1.7 1.3 2.6 2 .1 0 .2-.1.2-.2zm76.1 19.5c1.1-.5 2.5-.7 3.2-1.9.6.1 1.1 0 1.3-.8-.5-.8-.8-1.8-1.8-2.4-.8.5-1.7.9-2.5 1.4-.8.5-1.7.7-2.4 1.5.5.9.9 1.7 1.5 2.8.3-.3.5-.5.7-.6zm-33.4 204.2c-.6-.6-1.1-1.3-1.7-2-.1-.2-.4-.2-.7-.3-.6.7-1.1 1.3-1.8 2.1.5.6.9 1.1 1.3 1.5.3.3.6.5.9.7.4-.2.7-.3 1.3-.5.1.6.2 1.1.2 1.5.1.9.6 1.4 1.5 1.4.8 0 1.6-.7 1.5-1.5-.1-.4-.3-.9-.6-1.2-.6-.6-1.3-1.1-1.9-1.7zM39.6 149.3c-.2-.1-.5-.1-.7-.1-.8 0-1.3.6-1.4 1.3-.1.8.3 1.3 1.1 1.6 1.3.5 2.7.9 4 1.4.5.2.9-.2 1.2-.4.1-.8.2-1.5.3-2.3-1.5-.6-3-1.1-4.5-1.5zm263.7-95c.4-.8-.2-1.8-1.1-2-.7-.1-1.3 0-1.7.7-.7 1.1-1.4 2.1-2 3.2-.2.3-.3.7-.4 1.1.9.4 1.4 1.1 2.7 1.3.8-1.5 1.7-2.9 2.5-4.3zM360 177.2c.1-.1.4-.2.6-.2 1.3.5 2.3-.2 3.4-.5 0-.6.1-1.1.1-1.5 0-.4-.1-.9-.2-1.5-1.1.3-2 .4-2.9.8-.9.4-1.9-.2-2.7.4-.2.2-.6.2-.9.4.2.9.4 1.7.6 2.5.7.2 1.4.1 2-.4zM203.7 345c-.1 2.1-.2 4.1-.1 6.2 0 .4.4.7.8.7h1c0-.3-.1-.6-.1-.8.4-.2.8-.4 1.1-.6.1-.2.1-.2.1-.3 0-.6.1-1.3.1-1.9.4-3.1.7-2.9-2.9-3.3zm-58.5 14.6c-.1-.3-.2-.7-.4-.8-.7-.4-1.5-.5-2.3-.6-.7 1.7-1.4 3.3-2.1 4.9.3.3.6.4.8.6.3.3.5.6.7.9-.6-.2-1.2-.4-1.8-.7-.7 1.3-1.3 2.6-1.6 4.1.6.2 1 .4 1.4.5.4.1.9.5 1.5.1.4-.9.9-1.9 1.3-2.9.1-.3 0-.6 0-.9.2-.2.6-.4.7-.6.7-1.4 1.3-2.9 1.9-4.4-.1-.1-.1-.2-.1-.2zM46.1 154.7c.8.3 1.6.5 2.4.8.2-.1.3-.3.5-.4.1-.1.3-.2.4-.3.1.3.2.6.4.8 0 0 .1 0 .2.1.5-.7.9-1.4 1.1-2.2-.1-.1-.1-.2-.2-.3-.6-.3-1.3-.6-1.9-.8-.7-.2-1.4-.6-2-.4-.9.2-1-1.1-1.9-.6-.4.5-.8 1.2-1.2 1.8v.7c.7.3 1.4.5 2.2.8zm287.2-92.2c.9-1.2 2-2.3 3-3.6.3-.5.1-1.1-.5-1.3-.8-.3-1.6-.5-2.5-.8-.8 1-1.8 1.8-2.4 3 .3.5.8.9.9 1.4.2.6.6 1 1.5 1.3zM104.1 295.6c.7.8 1.3 1.5 1.8 2.2.3-.2.5-.3.7-.4-.7-.8-1.4-1.5-2-2.3l-.5.5zm8.7 50.1c.7.6 1.3 1.2 2.2 2 1.4-1.6 2.5-3.1 3.4-4.8-.8-.7-1.5-1.3-2.3-1.9-.3.5-.7.8-.8 1.2-.1.4 0 .9 0 1.3-1.7 0-2 1.2-2.5 2.2zm36.1 5c-.7-1-1.5-1.5-2.8-1-.8 1.5-1.5 3.1-2 4.7.5.9 1.3 1.3 2.1 1.6.1 0 .4-.2.6-.4-.4-.4-.8-.7-1.3-1.2.7.1 1.2.2 1.7.2.7-1.3 1.3-2.5 1.7-3.9zm66.7 1.1c.4 0 .6-.4.4-.9-.1-.1-.6 0-.2-.4.2-.2.4-.4.4-.6 0-1.4.1-2.8-.2-4.2-1.3-.6-1.3-.6-2.7-.2 0 1.9-.1 3.8.3 5.8.4.1.8.3 1.2.4.1.1.5.1.8.1zM90.5 281.6c.1.7.7.7 1 1 .4.3.6.7 1 1.3l2.4-1.5c-.6-.9-1.2-1.8-1.7-2.6-1 .4-2 1-2.7 1.8zM231.6 376c-.1-1.1-.2-2.2-.3-3.2-.1-.4-.4-.8-.6-1.3-1.1.2-2 .4-3.1.6-.1 1.8.1 3.2.7 4.6 1.4.5 2.3-.2 3.3-.7zm-28.3-12.9c-.5 1.6-.6 3.1-.5 4.7 0 .2.3.6.6.7.7.3 1.5.4 2.4.1.4-1.7.4-3.4.2-5.2-.9-.2-1.8-.4-2.7-.3zM81.1 125.9c-1.4-.8-2.7-1.6-3.9-2.4-.6.3-1.1.8-1.5.6-.8-.2-1.1.2-1.5.8.7.5 1.3 1 1.9 1.5 1 .7 2 1.5 3.2 1.8.4-.5.6-.9.9-1.2.3-.3.6-.7.9-1.1zm252.2 22c0 .2.1.4.1.6.1.6.2 1.1.2 1.6.1 0 .3.1.4.1 1.8-.8 3.6-1.6 5.4-2.5.2-.1.3-.3.5-.6l-.6-1.8c0-.1-.1-.1-.2-.2-1.9.9-3.9 1.7-5.8 2.8zM65.4 297.6c-.7.5-1.3.9-1.8 1.3.1.7.3 1.3-.4 1.8-.3-.2-.6-.5-.9-.7-.2-.1-.5 0-.7.1-.2.1-.3.5-.3.6.4.8.8 1.5 1.6 2.2 1.5-1.2 3.3-1.9 4.7-3.2 0-1.4-1.3-1.5-2.2-2.1zm10.7-187.7c.2.1.4.2.6.2-.5 1.7-.1 2.2 1.4 1.9.1.3.1.6.2.8.7 1.2 1.6 1.3 2.4.3.3-.3.6-.7.8-1.1-1.2-1.5-2.9-2.8-5-3.7l-1.1 1.1c.5.4.6.5.7.5zm156.4 274.5c0-.9.1-1.7-.2-2.5-.2-.1-.3-.2-.4-.2-.2-.1-.4-.1-.6-.2.2-.3.3-.4.5-.6 0 0 0-.1-.1-.2-1.4-.4-1.4-.4-3 0-.2 1.5.2 3 .7 4.4 1.1 0 2.1-.2 3.1-.7zm101-120.9l4.2 1.8c.2.1.4.1.7.1.4-.9.8-1.7 1-2.6-1.2-.8-2.5-1.2-3.4-1.5-1.7-.1-1.7 1.3-2.5 2.2zM68.8 121.9c.5-.4.8-.8 1.5-1.4-.2.8-.3 1.3-.3 1.7 0 .6.4.8 1 .7.6-.7.9-1.6 1.1-2.7-.9-.2-1.4-1.1-2.4-1-.6-.6-1.1-1.3-2-1.6-.2.1-.5.3-.7.5-.2.7-.4 1.3-.6 2 .5 1 1.4 1.4 2.4 1.8zm202.3-38c.6.3 1.2.7 1.7 1 .2-.2.4-.2.5-.4.8-1.4 1.5-2.8 2.2-4.2.1-.3.2-.6.2-.9.1-.5-.3-1-.7-1.1-.4-.2-1.1-.1-1.3.3-.5.8-1.2 1.5-1 2.5 0 .1-.2.3-.4.4-.6.5-.5.3 0 1.3-.3.4-1.1.3-1.2 1.1zM56.9 176.2c-.3-.2-.4-.3-.6-.4-.8-.2-1.5-.4-2.3-.5-1.3-.2-1.8 0-2.4 1.4-.1.4-.1.8-.2 1.2 1.7.5 3.2.9 4.9.9.6-.8.6-1.7.6-2.6zm146.7 204.6c-.4-.1-.8-.2-1.3-.3v5.2c1.4.4 1.4.4 2.6.2.4-2.2.5-3.3 0-4.9-.4-.2-.9-.2-1.3-.2zm-150.4-227c-.6.7-.7 1.3-.7 1.9 0 .2.1.4.1.4.8-.1.7.9 1.2 1.1 1 .3 2 .9 3.2.8.7-.8.9-1.6.8-2.7-1.5-.5-3-1-4.6-1.5zm60 204.8c-.4.8-.2 1.5.6 2.1.6.4 1.4.4 1.9-.3.7-.9 1.4-1.9 1.7-3.1-.6-.6-1.1-1.2-1.6-1.8-1.2.9-2 1.9-2.6 3.1zm24.4-285.2c-.6.3-1.2.6-1.7.9-.3.1-.5.4-.8.6.9 1.4 1.3 2.9 2.5 4 .9-.3 1.7-.7 2.4-1.4-.6-1.5-1.4-2.8-2.4-4.1zM339.4 94c.1-.1.3-.2.4-.3.6-.5 1.2-1 1.8-1.6.6-.6.6-1.6.1-2.2-.4-.4-.8-.4-1.7.1-.1.1-.3.1-.4.1-1.1.5-2.1 1.1-2.4 2.4-.3.1-.7 0-.9.2-1.7 1.4-3.4 2.9-5 4.3.2 1.1.8 1.8 1.4 2.7.4-.2.7-.3.9-.5 1.7-1.5 3.4-2.9 5-4.4-.1-.3-.2-.5-.3-.8.2.2.6.4 1.1 0zM126.7 336.6c.7.9 1.5 1.4 2.6 1.6.8-1.3 1.5-2.5 2.3-3.7-.8-.7-1.6-1.2-2.7-1.7-.8 1.4-1.5 2.6-2.2 3.8zm67-265c-1-.1-2-.2-2.9.3-.1 1.7-.1 1.7 1.3 2.4 0 .1-.1.1-.1.2.8-.1 1.7-.2 2.5-.2-.2-1.1-.4-1.7-.8-2.7zM66.1 261.3c1.1-.4 2.2-.8 3.4-1.2.2-.1.4-.3.6-.5-.4-.8-.6-1.7-1.3-2.5-1 .4-2 .7-2.9 1.1-.3.1-.7.4-.7.5.2.6-.8.8-.4 1.5.2.3.2.7.2 1.1.3 0 .6.2 1.1 0zm45.1 40.7c-.2.2-.4.5-.6.7.6.6 1.2 1.1 1.9 1.8l.6-.6c-.6-.6-1.3-1.2-1.9-1.9zM310.8 73.9c1-.8 1-.8.5-1.5-.1-.1-.2-.2-.3-.4v-.4c.4.1.8.3 1.4.5.5-.8 1-1.5 1.5-2.2.1-.2-.2-.8-.3-.8-.8 0-1.4-.7-2.1-1-.3.2-.5.4-.7.7-.6.8-1.2 1.7-1.8 2.5.6 1 1 1.9 1.8 2.6zM278.5 95c.4-.6.9-1.1.9-2-.8-.5-1.6-1-2.6-1.3-.3.5-.7 1.1-1 1.6.9.6 1.8 1.2 2.7 1.7-.1 0 0 0 0 0zm11.4 236.8c.4-.1.8 0 1.1-.6-.1-.2-.2-.5-.3-.7-.7-1-1.2-2.1-2.1-3-1.2.5-1.9 1.3-2.3 2.5.6 1 1.1 2.1 2 2.8.8-.9.8-.9 1.6-1zm-84.3 41.3c-.9-.2-1.8-.3-2.7-.5-.1.5-.2.8-.3 1.2-.1.8-.1 1.6-.1 2.4-.1 1.4.1 1.7 1.6 1.5.5 0 .9-.2 1.3-.3.4-.9.2-1.8.3-2.7 0-.5-.1-1-.1-1.6zm140.2-242.3c-.2-.4-.5-.4-.8-.2-.8.4-1.6.7-2.1 1.4.3.8.6 1.5.8 2.2 0 .5-1 .4-.6 1.2 1.9-.8 3.7-1.8 5.3-2.9-.7-.7-.7-.8-1.1-.7-.5.2-.7.1-1-.2-.1-.3-.3-.5-.5-.8zM133.6 66.3zm-2 2c.2.5.5 1.1.8 1.6.4.6.5 1.4 1.4 1.7.6-.7 1.7-.2 2.2-.7.5-1.2-.8-1.1-.8-2 0-.7-.6-1.4-1-2.1-.1-.2-.5-.4-.7-.5-.5.7-1.6.9-1.9 2zm196.5-2.5c.8-.5 1.5.2 2.3.1.6-.7 1.3-1.2 1.5-2.1-.7-.9-1.6-1.6-2.8-2.1-.8 1-1.7 2-2.6 3.1.4.8 1 1.3 1.6 1zm18.1 225.8c.1-.4.2-.9.3-1.3-.7-.5-.1-1.1-.3-1.8-.9-.7-1.9-1.3-2.8-1.7-.6.5-1 .9-1.4 1.3 0 .4-.1.8-.1 1.1 1.9 1.6 2.6 2 4.3 2.4zm-36.7-175.5c-1.1.9-2.2 1.7-3.1 2.9.7.8 1.4 1.4 2.3 1.9.8-.7 1.6-1.3 2.4-2 .3-.2.4-.6.7-1-.9-.6-1.3-1.6-2.3-1.8zM67 214.5c.5 0 1-.2 1.6-.3 0-.9.4-1.6 0-2.5-1.3-.1-2.5-.1-3.7 0-.4.6-.8 1.2-1.2 1.7-.3.4 0 1 .5 1 .9.2 1.9.2 2.8.1zm252 98.3c-.1-.1-.3-.2-.4-.3-.4-.3-.8-.6-1.3-.9-.1.1-.3.1-.4.2-.5.6-.9 1.3-1.4 1.9.9 1.1 2 2.1 3.1 3.1.3-.5.5-.9.8-1.3.3-.3.7-.6 1-.9-.3-.4-.5-.7-.8-1s-.3-.6-.6-.8zM101.7 115.7c.2-.3.5-.7.5-1 0-.3-.5-.5-.7-.8-.6-1-1.5-1.6-2.4-2.3-.7-.5-1.2-.4-1.8.4-.2.2-.3.5-.4.8 1.1 1.4 2.6 2.4 4.1 3.7.5-.4.6-.6.7-.8zm80.4-43.6c.5 0 1.1-.1 1.7-.2-.2-1.8-.4-3.6-1-5.2-.8-.1-1.5-.1-2.1.6-.2 1.4.5 2.8.6 4.2 0 .4.4.7.8.6zM51.8 248.8c0 .8.2 1.6-.2 2.3-.2.5.3.7.8.7.9-.1.9-1.1 1.6-1.3.7.8 1.5.7 2.3 0-.2-1.6-.2-1.6-.9-2.7-1.2.2-2.4.6-3.6 1zm330.9 48c0 .8.7 1 1.3 1.2.7.3 1.2-.1 1.7-.6s.6-1.2.3-1.8c-.5-.9-1.2-1.5-2.4-1.1-.1-.2-.1-.5-.3-.6-.9-.7-2-1.2-3.3-1.6-.1.6-.1 1-.2 1.4-.2.5-.4 1-.7 1.5.8.5 1.5 1 2.2 1.5.4.3.9.2 1.4.1zM144.5 69.9c.7 2.7 1.5 4.4 2.2 4.5.8-.4.4-1.1.4-1.6.4-.5.8-.9 1.2-1.4-.5-1-.7-2-1.6-2.8-.3.1-.6.2-.9.4-.3.3-.8.6-1.3.9zm-69.3 99c0 .6-.4 1.2-.2 2.1.6.2 1.4.3 2 .6h.1c.2-.8.5-1.7.7-2.5-1.3-.2-2.3-.4-2.6-.2zm306.3-54.3c.8-.6.7-1.9-.1-2.5-.6-.4-1.2-.4-1.8-.2-.7.3-1.4.6-2.1 1.3.5.8.8 1.9 1.6 2.6 1-.1 1.7-.7 2.4-1.2zm-52.6 26.1c.1 0 .1 0 0 0zm-3.8.7c.5.7.8 1.3 1.2 1.9-.2.1-.4.2-.5.4-.1.2-.2.5-.1.6.1.1.4.2.6.2.7-.3 1.5-.5 2-1.2v-1.2c.3.3.4.5.6.6.2.1.4.1.6.1.2-.1.3-.3.1-.6-.3-.4-.8-.8-.7-1.4-.3-.3-.7-.6-1-.9-1 .4-1.8 1-2.8 1.5zm-17.8 214.7c-.7-1-1.2-2.2-2.3-3.2-.3.2-.6.4-.8.6-.1.2-.1.5-.2.7-.1.3-.4.5-.5.7-.2.2-.4.5-.6.8.5.7.9 1.4 1.4 2.1.6-.3 1.1-.4 1.6-.7.4-.4 1.1-.2 1.4-1zm-142.8 3c-.5 1.1-.8 2.2-1 3.4l1.8 1.2c.5.3 1 .1 1.2-.4.3-.8.5-1.7.7-2.7-1.3-1.4-1.3-1.4-2.7-1.5zM76.9 153.3c.1-.2.2-.3.3-.6.1-.3.2-.7.4-1.3-.1 0-.1-.1-.2-.2s-.1-.1-.2-.1c-.6-.1-1.1-.1-1.6-.7-.4-.4-1.1-.8-1.9-.5l-.6 2.4c.9.8 2 1.3 3.1 1.7l.7-.7zm283.5-3.9c.4.9.8 1.7 1.2 2.5 1.4-.3 2.7-.6 3.7-1.5-.5-.9-1-1.6-1.6-2.5-.8.3-1.7.6-2.5.9-.3.2-.6.4-.8.6zM301.8 348c-.9.3-1.4.9-1.9 1.7-.1.2-.2.4-.2.7.1.8.8 1.7 1.8 2.3.7-.7 1.4-1.4 2-2.3-.5-.9-.8-1.8-1.7-2.4zM223.3 73zm2.9-1.3v-1.9c-.9-.7-1.7-.8-2.8-.5-.2.9-.3 1.6-.5 2.4-.1.5.2.9.4 1.3h1.4c1.2.1 1.4-.1 1.5-1.3zm-96.9 10.5c-.4-1.1-1-1.9-1.8-2.8-1 .4-2.1.8-2.9 1.6.5 1 1 1.9 1.8 2.6 1-.4 1.8-.9 2.9-1.4zM362 108.8c.6-.5.7-1.3.4-1.9-.4-.6-1.2-1-1.9-.7-.8.4-1.7.8-2.3 1.8.6.6 1.1 1.3 1.8 2.1.8-.5 1.4-.9 2-1.3zM59.7 288.6c1.1 0 2.1-.4 2.9-1.4-.4-1-.4-2.1-1.2-2.9-.6.2-.9.5-.7 1.1.1.4.6.8.2 1.4-.9 0-1.4-.9-2.3-1-.7.3-1 .8-.7 1.6.3.7.6 1.3.9 1.9.5-.1.8-.3.9-.7zM329 128c.1.5.4 1 .6 1.5 1.2-.3 2.1-.9 3.1-1.8-.2-.6-.3-1-.5-1.5-.2-.4-.4-.8-.7-1.3-.7.4-1.2.7-1.7 1-1 .7-1.1 1.1-.8 2.1zm-5.9-71.1c-.6-.7-1.3-1.3-2.3-1.8-1 .8-1.3 1.8-1.9 2.6 2.2 2.3 3.1 1.7 4.2-.8zm-137.6 322c-.2 1-.3 1.9-.5 2.8.2.2.4.4.5.4.8.1 1.6.2 2.5.4.4-1.2.5-2.2.3-3.4-.9-.6-1.8-.5-2.8-.2zm135.1-259.6c-.4-.8-1-.9-1.7-.3-.7.5-1.5.9-1.8 1.9.4.6.9 1.2 1.5 2 .7-.6 1.2-.9 1.7-1.3.8-.8.9-1.3.3-2.3zM190.2 69.8c.1.8.6 1.1 1.4.8.4-.1.8-.4 1.3-.7.1.1.2.3.3.4.1.1.3.2.4.1.1 0 .3-.2.2-.3-.2-.9 0-1.9-.6-2.8-1.1.2-2.1.4-3.3.6.2.7.2 1.3.3 1.9zm-85.4 46.6c-.6-.5-1.2-.2-1.4.5-.2.7-.4 1.4.4 1.9.4.3.8.6 1.2 1 .6-.6 1.1-1.3 1.7-1.9-.7-.6-1.3-1.1-1.9-1.5zM83.1 264.8c.2-.1.3-.4.5-.6-.2-.6-.3-1.2-.6-2.1-.8.3-1.4.6-1.9.9-.5.3-1.1.6-1.7.9.4.8.5 1.6 1.4 2 .8-.4 1.5-.7 2.3-1.1zm25.5-173c.7-.8.7-1.6 0-2.3-.4-.4-.9-.8-1.3-1.1-.3.1-.4.2-.5.3-1.3 1.2-1.4 2-.2 3.2.3.3.7.6 1.1.8v.1h.1c.2-.4.5-.7.8-1zm161.2 245.8c-1.2-.1-2.1.2-3.1.6.6 1.2.8 2.3 1.8 3.3.4-.4.7-.8 1.1-1.1.4-.3.8-.4 1.3-.7-.4-.8-.8-1.4-1.1-2.1zm113.6-97c-.1-.7-.2-1.2-.3-1.9-.5.2-.9-.3-1.4.3 0 .7.1 1.6.1 2.5.5.2.9.3 1.4.5.3.1.6.1.9.1.8 0 1.4-.5 1.5-1.2 0-.4 0-.8-.2-1.1-.2-.3-.6-.4-.9-.7-.3.4-.6.8-1.1 1.5zm-68.6-115.8c1.2.3 1.7-.3 2.4-1.1-.7-.6-1.3-1.2-1.9-1.8-1.2.6-2.1 1.5-3.1 2.3.3.4.5.6.6.8.7 0 1.4-.3 2-.2zM57.6 214.9c.4-.1.7-.4.7-.8 0-.6.2-1.3-.4-1.8h-2.8c-.1.9-.5 1.8.1 2.7.8.1 1.6 0 2.4-.1zm13.5-33.1c.8-1 .4-2 .2-3.1-.7-.1-1.4-.3-2.1-.4-.6.9-.8 1.8-.9 2.7.2.2.3.3.5.4.8.1 1.5.2 2.3.4z"></path><path d="M63.7 259c-1 .2-2 .4-2.7 1.4.3.8.6 1.6 1.4 2.2.6-.2 1.2-.3 1.8-.6.3-.2.5-.5.8-.8-.8-.6-.7-1.6-1.3-2.2zm1.2 2.2c.1 0 .1 0 0 0zm37.2 35.9c-.6.8-1.6 1.1-2 2.2.9.6 1.7 1.1 2.5 1.6.4-.4.8-.6 1.2-1 .5-.5.5-.7.2-1.2-.5-.7-.9-1.3-1.9-1.6zM204.6 73.4c.1-.9.2-1.7-.2-2.6h-2.3c-.1 1-.6 2 .1 3h1.8c.1-.1.4-.2.6-.4zm187.8 138.7c0-.8-.4-1.4-1.2-1.5-.5-.1-1.1 0-1.6 0-.3.9-.7 1.7-.7 2.7.8.4 1.5.3 2.2.3.8-.1 1.3-.7 1.3-1.5zm-292.2-169c1-.5 2-.9 2.6-1.8-.9-1.4-1-1.4-1.5-1.6-.7-.3-1.9.1-2 .8-.1.9-.1 1.9.9 2.6zm154.7 329.7c.4-.7 0-1.4-.4-2-.1-.1-.3-.1-.5-.3-.7.4-1.6.4-2.4 1 .2.8.4 1.5.7 2.4 1.3.2 2.2-.2 2.6-1.1zm68.5-239c.5-.5 1.1-1 1.8-1.3.1 0 .2-.4.3-.6.9-.3 1.9-.3 2.4-1.3-.1-.7-.5-1.3-1.1-1.7-.2-.2-.6-.4-.8-.3-.8.2-1.6.5-1.8 1.6-1.4-.1-2.3.7-3.2 1.8.4.6.7 1.2 1.1 1.7.4.4.9.5 1.3.1zm89.2 30.2c.1.5.1.9.1 1.3-.3.1-.5.2-.8.4-.3.3-.4.7-.2 1 .1.2.5.4.8.4 1-.1 2-.4 3.2-.6-.6-1-1.1-1.9-1.7-2.8-.5.1-.9.2-1.4.3zM190.4 50.1c-.8.1-1.5.3-2.5.5v1.1c.2.9.5 1.1 1.2 1.1.4 0 .8 0 1.2-.1.4-.2.8-.5 1.1-.8.3-.4.3-.9 0-1.3-.2-.4-.6-.5-1-.5zm25.5 22.8c.3.2.5.5.8.8.5.4 1.4.2 1.6-.4.2-.8.4-1.7 0-2.7-.7.2-1.1.3-1.6.4-.4.1-1-.1-1.3.4-.1 1.1-.1 1.1.5 1.5zM23.1 240.6c0 .9-.2 1.8.3 2.7.9.1 1.7-.3 2.6-.5.1-1.1.2-2-.5-2.8-.9 0-1.7-.1-2.4.6zm50.2-70.2c.7-1.2.7-1.2.6-2.3-.7-.2-1.5-.4-2.2-.6-.2-.1-.5 0-.8.1l-.3.9c-.1.4-.2.7-.3 1.2.7.3 1.4.5 2.1.7.3.1.6 0 .9 0zm6.1-15.1c.5.2.9.5 1.3.6.4.1.8.5 1.4.2.1-.4.3-.8.4-1.3.1-.4.1-.9.1-1.4-.6-.3-1.1-.5-1.6-.7-.9.6-1.3 1.5-1.6 2.6zM219.9 34.2c.1-.7.1-1.1.1-1.4v-.7c-.1-.6-.7-1.1-1.3-1.2-.5-.1-1.3.4-1.5.9-.2.7-.4 1.5.2 2.3.8 0 1.5.1 2.5.1zm104.3 21.1c.8-.6 1.3-1.1 1.3-1.9 0-.4-.2-.9-.3-1.3 0-.1-.6.1-.8.1-.2 0-.4-.2-.6-.3-.3-.1-.5-.1-.6 0-.2.1-.2.4-.1 1.1-.2.1-.3.2-.5.2l-.6.3c.5.8 1.4 1.2 2.2 1.8zM69.6 169.2c-.2-.7-.3-1.5-.5-2.5-.7-.2-1.3-.4-1.9-.4-.5 0-.9.3-1 .8-.2.4-.1.8.3 1.1.7.9 1.5 1.1 3.1 1zm-19.1 7.2c.1-.5.4-1 0-1.7-.6-.1-1.3-.3-2.2-.5-.2.9-.3 1.5-.4 2.1-.1.8.2 1.2 1 1.3.9.1 1.4-.2 1.6-1.2zm73.1-97.5c.3-.2.6-.5.9-.7.4-.2.8-.4 1.1-.6v-.9c-.1-.8-.3-1-1-.8-.6.2-1.1.6-1.8.2 0-.2.1-.4.1-.6-.3-.1-.6-.1-.8-.2-.1.4-.3.8-.2 1.1.4 1.1.7 2.1 1.7 2.5zm-1.5-3.5c-.1 0-.1 0 0 0-.1 0-.1 0 0 0zm198.8 243.5c1-.4 1.6-1.1 2.2-1.9-.5-.8-.9-1.4-1.9-1.7-.6.7-1.4 1.2-1.9 2.2.6.5 1.1 1 1.6 1.4zm-87.7 70.8c.1-.9 0-1.6-.7-2.3-.9.1-1.8.3-3 .5v1.1c.1.6.3.9.9.9 1 .1 1.9.1 2.8-.2zm-199-90.8c-.4.2-.8.5-1.2.8.5 1 1 1.8 1.6 2.9.6-.3.9-.5 1.3-.7 0-.7-.1-1.3-.1-1.9-.1-1.9-.1-1.9-1.6-1.1zM202.1 69c.8 0 1.6-.1 2.3-.5.1-.9.2-1.8-.4-2.6-.8 0-1.5.2-2.4.6.2.9-.3 1.8.5 2.5zm173.1 49c.9-.6.9-.7.6-1.2-.1-.2-.3-.4-.4-.6-.1-.2-.4-.4-.1-.7l1.5 1.5h.1s.1 0 .1-.1c0 0 0-.1.1-.1v-.1c-.3-.9-.7-1.7-1.2-2.9-1 .5-2 .7-2.5 1.7.7.9.9 2 1.8 2.5zM101 44.7l1.2 1.5c1.1-.4 1.7-1.2 2.6-1.7-.2-.8-.5-1.4-1.3-1.7-1.1.2-2 .6-2.5 1.9zm212.5 71.7c1-.3 1.5-1.1 2.1-2-.2-.8-.7-1.4-1.4-1.4-1 0-2 .3-2.4 1.4.5.3 1 .4 1.3.7.3.3-.2 1 .4 1.3zm73.3 67c-.3-.4-.9-.5-1.5-.2-.4.2-.6.5-.6.9 0 .7-.1 1.4.5 2 .8.3 1.6.1 2.1-.6s-.1-1.3-.3-2c-.1 0-.2 0-.2-.1zm-278.5-80.6c-.5.6-1.1 1.2-1.5 1.8-.1.1 0 .3-.1.6l1.1 1.1c1-.3 1.5-1.2 2.2-1.8-.3-.9-.7-1.5-1.7-1.7zm48.5 261.5c-.6-.3-1.2-.6-1.9-.9-.2.3-.4.4-.5.6-.1.3-.1.6-.2.9.3.3.7.6 1 .9l.9.9c1-.1 1.2-.3 1.4-1.1.2-.6.1-.9-.7-1.3zm199.5-164.6c-.4 0-.8.1-1.2.1-.2.9-.4 1.7 0 2.6.8.2 1.6.3 2.4-.1-.1-.7-.2-1.3-.3-1.8-.1-.6-.2-.8-.9-.8zM272 343.4c-.8.5-1.5.9-2.4 1.4.4.8.7 1.3 1.1 2 1-.4 1.8-.7 2.6-1.5-.2-.3-.4-.6-.6-1-.2-.3-.4-.6-.7-.9zM145.2 87.5c-1 .2-1.7.7-2.4 1.5.1.1.1.3.1.4.9-.5 1.7-.9 2.6-1.4 0-.1-.1-.3-.3-.5zM2.3 245c-.2-.2-.5-.5-.7-.5-1.1.1-1.6.7-1.6 1.7s.7 1.5 1.7 1.5c.5 0 .9-.4.9-1 0-.3-.1-.7-.1-1.1 0-.2 0-.5-.2-.6zm86.8-104.9c-.5 0-.7.3-.8.8v1h-.7c-.3.1-.6.2-.6.6 0 .2.2.4.4.5.3.2.6.3 1 .3l1.5-2.7c0-.3-.4-.5-.8-.5zm-29.7 39.3c.1-.5.1-.9.3-1.3.2-.4.5-.8.7-1.3-2.2-.8-2.3-.7-2.9 1.3 0 .2-.1.3-.1.5 0 .1.1.3.2.5.3.1.7.3 1 .4.2 0 .5-.1.8-.1zm287.5-9.6c.3.1.6.1.9 0 .4-.1.7-.3 1.1-.5-.1-1-.3-1.9-1-2.8-.5.2-1.1.4-1.6.6v1.8l.3.3c0 .3.1.6.3.6zM99.7 125.2c-.6.5-1.2 1.1-1.5 1.8-.1.1 0 .3 0 .6.1.1.2.1.3.2l1.8-2.4c-.1-.1-.3-.1-.6-.2zM166.4 63l.3 1.8c1.1.1 1.9-.2 2.8-.6-.1-.4-.1-.7-.2-1-.1-.3-.3-.5-.4-.8-.9 0-1.8 0-2.5.6zm-61.3 25.5c.5-.3 1-.7 1.5-1-.2-.8-.6-1.3-1.5-1.6l-1.9 1.9c1 1.2 1.1 1.2 1.9.7zM353 165.3c-.2 0-.5.2-.6.3-.1.9-.2 1.9.5 2.8.4-.1.8-.2 1.1-.3.2-.1.4-.2.7-.4-.2-.6-.3-1.2-.5-2-.4-.2-.8-.4-1.2-.4zM101.3 329.7c-.8.3-1 .8-.7 1.5l.3.9c-.4-.2-.8-.5-1.3-.8-.3.4-.6.7-1 1.2.8.9 1.6 1.6 2.6 2.4.4-.3.7-.6 1.1-1-.3-.4-.6-.8-.8-1.2.2 0 .5.1.7.1.5.1.9 0 1.1-.7-.7-.7-.9-1.9-2-2.4zm34.9 44c.7.4 1.3 1.1 2.4 1.2.2-.5.4-1 .7-1.6-.9-.6-1.7-1-2.5-1.2-.5.4-.8.8-.6 1.6zm206-87.2c-.1-.3-.2-.6-.5-.8-.3-.2-.6-.1-.8.1-.6.7-1.4 1.1-2.3 1.2.2.5.7.8 1 .7.8-.2.8.4 1.1.7.1.1.3.1.4 0 .3-.1.5-.3.7-.5.1-.3.2-.6.2-.9.1 0 .3-.3.2-.5zm-.3 1.5s0 .1 0 0c0 .1 0 0 0 0zm-233.6 18.7c.4 0 .7-.1 1.1-.1-.2-.6-.4-1-.6-1.4-.1-.1-.2-.2-.5-.3-.8.6-1.5 1.3-2.1 2.1-.1.2-.1.6-.1.9.7.1 1.2.2 1.7.3.3-.6.4-1.1.5-1.5zm-49.2-4.8c-.6.7-.5 1.5.2 2.1.3.2.7.4 1 .4.3 0 .7-.2 1.2-.5-.5-.9-.9-1.5-1.3-2-.2-.5-.7-.5-1.1 0zm-11.7-36.6c.3.8.1 1.8 1 2.5.4-.2.8-.4 1.3-.7-.2-1-.4-1.9-.9-2.6-.7 0-1.1.2-1.4.8zM239.7 49.9c0-.5-.2-.9-.8-1-.3 0-.5-.3-.7-.4h.1c-1.2.3-1.2.3-1.2 1.8.5.2 1 .4 1.5.5.7.3 1.1-.1 1.1-.9zm-6 19.7c.7.1 1.4.2 2.1.2.2-.5.4-.9.4-1.2 0-.4-.1-.8-.3-1.1-.3-.4-.8-.4-1.3-.2.1.2.2.4.4.7-.5.1-.9.1-1.2.2-.2.1-.3.5-.3.8-.1.3.1.6.2.6zM65.6 177.7c-.2 0-.5.2-.6.3-.2.7-.3 1.4-.4 2.1 0 .1.1.3.2.5.4.1.8.2 1.4.3.2-1 .3-1.8.2-2.7-.1-.4-.4-.6-.8-.5zm196.5-93.2c-1.4-1-1.4-1-3-.9.7.4 1.2.7 1.6 1-.5.6-1-.1-1.4.2.8.3 1.5.7 2.3 1 .3-.4.5-.8.5-1.3zM72.5 124c.3-.2.8-.5 1.1-.8.4-.4 1.1-.1 1.3-.9-.3-.6-.8-.9-1.5-.9l-1.3 1.3c-.1.1-.2.3-.2.4-.2.5.1.7.6.9zm268.8 12.3c.7-.1 1.1-.4.9-.9-.2-.8-.3-1.7-1.1-2.5-.4.2-.9.4-1.8.8 1.4.6 1.5 1.7 2 2.6zM223.8 68.2c.7.2 1.4.3 2.1.4.4.1.7-.4.7-.7 0-.3-.2-.6-.5-.7-.5-.1-1.1-.2-1.7-.3h-.4c-.2.2-.4.4-.5.7 0 .3.2.6.3.6zm164 145.1c-.1-.8-.2-1.6-.4-2.4 0-.2-.4-.4-.7-.5-.3-.1-.6.1-.7.5-.1.9.1 1.7.6 2.4.3.3.8.4 1.2 0zM116.7 352.9c.8.5 1.3 1 1.9 1.3.4.3.8.1 1.1-.5.1-.2.1-.4.1-.6-.8-.5-1.5-.9-2.2-1.4-.3.4-.5.7-.9 1.2zm69.8 22.5c-.2 0-.5.3-.6.6-.1.3.1.6.4.7.7.2 1.3.4 2.2.7.3-.7.6-1.2-.1-1.9-.6-.1-1.3-.2-1.9-.1zM224 74.8c.1 0 .3 0 .4.1.4.1.8.2 1.2-.1.1-.5.2-.8.1-.9v-.2c-.1-.2-.4-.2-.9-.2s-1.1.1-1.5-.4c-.8 1.2-.7 1.6.7 1.7zM120.9 96.2c.6-.5 1.3-.9 1.9-1.4.1-.1.2-.5.1-.6-.1-.2-.4-.4-.5-.4-.7.3-1.4.7-2.1 1.1-.3.2-.2.6 0 .8.1.2.4.3.6.5zM56.6 287.4c-.1-.1-.4-.2-.6-.1-.2.1-.4.4-.3.5.1.8.8 1.3.7 2.2.3.1.5.2.8.3.6-.3.8-.8.5-1.4-.4-.5-.8-1-1.1-1.5zm92.6 94.7c.7.6 1.4 1 2.4 1 .1-.4.2-.7.3-1.1-.9-.6-1.8-.9-2.8-1.1-.4.6-.2.9.1 1.2zM66.4 130.6zm-.1.9c.1.3.3.5.6.7.3.2.6 0 .8-.3.4-.6.7-1.2 1.1-1.9-.2-.2-.4-.5-.7-.8-.3.4-.5.7-.7 1-.2.4-.6.5-1 .5-.1.2-.2.5-.1.8zm138.6 239.2c-.5-.1-1.1-.1-1.6-.1-.2 0-.5.4-.6.6-.1.4.1.9.5.9.3 0 .6.1.5.1h1.1c.5 0 .8-.3.8-.7 0-.4-.3-.7-.7-.8zm92.3-29.7c-.1 0-.3-.1-.4-.1.2-.7 0-1.2-.4-1.8-1.1-1.7-2.2-3.4-3.4-5.1-.2-.3-.5-.5-.8-.8-.5.2-.8.3-1.2.4-.4.2-.5.6-.4 1 1 .2 1.1.5.6 1.1-.2.3-.6.5-.5 1.1.5.7 1 1.4 1.5 2.2.2.4 1 .3 1 .8s.5.8.6 1.4c0 .5.6.6 1.1.6-.1.3-.4.5 0 1 1 .1 1.9-.4 2.8-.8.3-.2.3-.6 0-.8-.2-.1-.4-.1-.5-.2zm52.3-174.7c.6.8 1.1 1.6 1.7 2.6.5-1.2.8-2.2-.1-3.2-.6.2-1 .4-1.6.6zM59.1 214.6c.5.2 1-.1 1.2-.5.1-.3.2-.6.2-.8v-.6c-.1-.5-.6-.8-1.1-.5-.5.3-.7.8-.8 1.4.1.5.1.9.5 1zm296.5-36.5c.9-.1 1.1-.2 1.1-.6 0-.8 0-1.6-.6-2.3-.4.1-.8.1-1.4.2.3.7.4 1 .5 1.4.2.4.3.9.4 1.3zm23.9 34.9c.4-.7.2-1.5.2-2.3 0-.2-.3-.4-.5-.4s-.5.1-.6.3c-.4.6-.4 1.2-.2 1.8.2.4.5.8 1.1.6zm-4.9-.1c.4.2.6-.1.7-.4.2-.5.2-1.1.3-1.5 0-.3 0-.5-.1-.8 0-.1-.2-.3-.3-.3-.2 0-.5.1-.6.2-.3.7-.5 1.5-.4 2.3 0 .2.2.4.4.5zm-20.1-34.4c.3-.2.3-.5.2-.8-.3-.6-.5-1.1-.8-1.7 0-.1-.2-.1-.3-.2 0 0-.1 0-.1-.1-.1 0-.1.1-.2.1s-.1.1-.2.1c-.4.9-.2 1.7.3 2.5.2.3.7.3 1.1.1zM218.3 69.7c.1-.1.2-.3.2-.4 0-.1-.1-.3-.2-.4-.6-.1-1.2-.3-1.8-.2-.7 0-.8.5-.8 1.4.8.1 1.7.1 2.6-.4zm94.4 253.6c-.1 0-.4 0-.4.1-.6.6-1.1 1.3-1.6 1.9.7.8 1.1.9 1.5.3.3-.6.5-1.3.8-1.9 0-.2-.2-.4-.3-.4zM93.8 134c-.2-.2-.3-.4-.4-.4-.1-.1-.3 0-.4 0-.7.6-1.1 1.3-1.2 2.2 0 .1.1.3.2.4.2.1.5.1.6 0 .1-.1.1-.2.2-.2.2-.3.3-.5.5-.8.3-.5.4-.8.5-1.2zm235.8 189.4c-.7-.7-1.7-.6-2 .3-.1.2.2.5.2.8.1.3-.6.6.1 1 .6-.5 1.3-1 1.9-1.6 0-.2-.1-.4-.2-.5z"></path><path d="M240 47.9c-.2-.6-.6-1-1.2-1.1-.7-.1-1.2.3-1.5 1 .3.2.5.5.8.7.5 0 .9.1 1.4.1.4 0 .6-.5.5-.7zm-54.6-18.2c1.2.4 2 .3 2.9.1.3-.1.5-.4.5-.7 0-.2-.2-.4-.3-.7-1 .4-2.1.2-3.1 1.3zm126.9 296.7c-.3.2-.1.9.3 1 .2.1.5.1.7 0 .6-.5 1.2-1 1.9-1.6-.4-.4-.7-.7-.7-.6-.9.3-1.5.8-2.2 1.2zm-30.6-241c.6.3 1.2.5 1.8.6.2 0 .4-.2.7-.3-.6-.9-1.5-1.1-2.2-1.7-1 .7-1 1.1-.3 1.4zm32.1 255.1c-.4-.3-.9-.2-1.3 0-.3.2-.7.4-1 .6-.4.3-.4.6 0 1.2.1.2.3.3.5.4.6-.2 1.1-.3 1.6-.5-.3.4-.6.9-1 1.4.2.3.5.6.7.9.4-.5.6-.9.9-1.3.3-.4 1.1-.3 1.2-1-.3-.2-.6-.3-.9-.5.1-.5-.2-.9-.7-1.2zm33.1-89.6c-.6.7-.9 1.5-.9 2.4 0 .1.3.3.5.5.8-.7.9-1.7 1.1-2.6 0-.1-.1-.3-.3-.4-.1 0-.4 0-.4.1zM203.1 378.4c-.5.1-.8.4-.7 1.1.5.1 1.1.3 1.7.5.4.1.9.5 1 .1.2-.6-.4-.6-.9-.8-.1 0-.4-.2-.3-.2.2-1-.4-.8-.8-.7zM189.8 66.6c.1.4.4.7.8.5l2.1-.9v-.4h-2.3c-.5 0-.7.4-.6.8zm26.8 1.3c.5.1.9.1 1.4.1.2 0 .4-.2.5-.4.1-.2-.1-.7-.4-.7-.5-.1-.9-.1-1.2-.2-.8 0-1.1.1-1.2.4-.2.3.2.7.9.8zm100.1 303c-.7.1-1.3.5-1.8 1-.2.2-.4.5-.1.8.2.3.5.2.8.1.2.2.3.5.5.6.4.1.7-.3.7-.7v-.7c.3-.4.4-.8-.1-1.1zM77.1 161.8c-.4.9-.7 1.7-1 2.5.8.7 1.7.7 2.5 1.1.1.1.2.1.4.1.3-1 .7-1.9 1-2.9-1-.4-1.9-.8-2.9-.8zm74-108.4c.7 0 1.4-.3 1.9-.7-.1-.7-.6-.9-1.2-.9s-1.1.3-1.3.8c-.1.1-.1.4 0 .4.2.2.4.4.6.4zm157.5 280.5c-.4-.5-.9-.5-1.3-.2-.5.3-1.2.5-1.3 1.2 0 .1 0 .2.1.2.1.1.3.3.3.2.8-.2 1.6-.6 2.2-1.4zM150 378.1c0 .1 0 .4.1.4l2.4.9c.1 0 .2-.2.6-.4-1-.7-1.8-1.1-2.8-1.2-.1 0-.3.2-.3.3zm4.8-313.6s0 .1-.1.3c.1.1.3.4.4.4.7-.1 1.3-.3 2-.5.1 0 .2-.2.2-.4 0-.1-.1-.3-.2-.4-.9-.2-1.6 0-2.3.6zM112 95.6c.3-.5 1.2 0 1.2-.9l-1.8-2.1c-.2-.2-.6-.2-.8-.2-1-.4-1.9.1-2.8.4.3.6.6 1.1 1.4 1 0 .3-.1.7.1.9.5.8 1.1 1.5 2 2.1.1-.5.5-.8.7-1.2zm120.6 290c-.5 0-1.1 0-1.6.1s-.9.2-1.6.8c1.2-.1 2.3.1 3.2-.9zM122.5 74h-.7c-.6.1-1.2.6-1 1 .3.6.8.3 1.2.4.4-.4.7-.9 1.1-1.3-.1-.1-.3-.1-.6-.1zm133.2 303c-.6.1-1.2.2-1.8.4-.1 0-.2.2-.2.4 0 .1.1.3.2.4.8.5 1.5.4 2-.4.1-.1.1-.3.1-.5-.1-.2-.2-.4-.3-.3zM82.9 137.6c-.6.6-.9 1.4-1.2 2.3.3.1.6.2.7.1.6-.6.8-1.4 1.2-2.3-.3-.1-.6-.2-.7-.1zm282 162.7c-.6.4-1 1.3-.8 2l.1.1c.1.1.2.1.3.1.7-.2 1-.7 1-1.4 0-.2-.1-.4-.2-.6-.1-.2-.4-.3-.4-.2zm-50.6 45.2c.7.4 1.3.4 1.8-.1.4-.4.6-.9.2-1.5-.8.4-1.5.8-2 1.6zM270 18.8c.5.2.9.7 1.5.3 0-.6-.5-.9-1-1.1-.4-.3-.9-.3-1.3 0-.3.1.1.6.8.8zM33.5 302.7c-.3-.8-.6-1.4-1.1-2.4-.8 1.4-.4 2.2 1.1 2.4zm285.2-169.1s-.1.1-.1.2c.4.6.7 1.2 1.2 1.8.2.3.6.2 1-.3-.6-.6-1.1-1.2-1.7-1.8 0-.1-.3.1-.4.1zM55.2 288.9c-.1-.1-.3-.2-.6-.3.1.9.3 1.5.7 2.1.1.1.4.3.6.2.4-.1.5-.4.4-.7v-.2c-.6-.2-.8-.7-1.1-1.1zm1.1 1.1zM185.5 28.2c1.8.2 2 .2 2.9-.8-1-.2-1-.2-2.9.8zM62.6 211.9c-.1 0-.3 0-.4.1-.4.7-.4 1 .2 2.4.2-.8.4-1.4.6-2.1 0-.1-.3-.3-.4-.4zm2.6-80.7c.5-.2.8-.4 1.2-.6.1-.6.2-1.1.3-1.8-1.2 1.2-1.2 1.2-1.5 2.4zm243.9 228.7c.1-.1 0-.4 0-.8-.8.8-1.5 1.3-2.1 2.1.2 0 .5.1.5.1.6-.4 1.1-.9 1.6-1.4zm-55.8 7.5c-.7-.1-1.4-.3-2.1-.4-.1 0-.3.1-.4.2.1.2.2.5.3.5.7 0 1.4 0 2.1-.1.1-.1.1-.1.1-.2zm-39-24.1c.3 0 .6-.1 1.5-.3-.8-.4-1.1-.6-1.5-.6-.4-.1-.8-.1-1 .3v.2c.2.5.6.4 1 .4zM50.4 264.5c0-.1-.3-.2-.5-.3-.1.2-.3.4-.2.6.1.6.4 1.2.6 2.1.4-1.1.3-1.8.1-2.4zm203.1 103.9c-.9 0-1.5.2-2.2.6-.1.1-.2.3-.2.4 0 .1.2.3.3.3.9-.2 1.5-.6 2.1-1.3zM140.6 58.2c-.1.1-.1.4-.1.6 0 .1.3.2.4.2.4-.1.7-.2 1.1-.4.3-.1.3-.6-.1-.7-.2-.1-.4-.1-.7-.1h.1c-.3 0-.5.2-.7.4zm198.2 77.2c-.1-.3-.2-.9-.7-.8-.7.2-.1.7-.1 1.1 0 .2 0 .4.1.7.3.1.5.1 1 .2-.1-.5-.1-.9-.3-1.2zm1.6 164.7c-.1 0-.3 0-.4.1-.3.4-.6.9-.8 1.4.2.1.4.3.5.3.6-.2.9-.8 1-1.4 0-.1-.2-.3-.3-.4zM278.9 44c-.8-.9-.8-.9-2.2-.4.7.6 1.4.7 2.2.4zm68.5 87c.5-.5.3-1 0-1.5-.3.1-.5.2-.9.3.1.7.4 1 .9 1.2zM185.5 378.1c1.2.4 2 .4 3.3-.1-1.3-.3-2.1-.4-3.3.1zM97.8 125.3c-.3.2-.3.5.1.7.6-.4 1.2-.7 1.4-1.4-.8-.2-1.1.5-1.5.7zm205.6 206.3l.6-.9c.1-.1 0-.4 0-.4-.2-.1-.4-.2-.6-.1-.7.4-.7.7 0 1.4zM97.3 291.1c-.1.1-.2.3-.1.4.3.6.5 1.3 1.4 1.8-.1-1-.5-1.6-.9-2.2h-.4zM261 80.5l1.2.6s.2-.1.3-.3c-.5-.3-.9-.6-1.6-1 .1.4 0 .7.1.7zm18.6 11.6h.3c.1 0 .2-.1.3-.1v-.2c0-.1 0-.1-.1-.2-.3-.3-.7-.5-1.4-1.1.1.9.5 1.3.9 1.6zm-159.3.7c-.6.1-1.1.4-1.6 1.5.7-.4 1-.6 1.2-.8.2-.2.6-.3.4-.7zm205.5 249.7c.8.2.8.2 1.4-1-.8.3-.8.3-1.4 1zm5.3-193.6c-.2.1-.5.2-.5.4-.1.5.3.4.7.5.1-.1.3-.2.4-.4.1-.3-.3-.6-.6-.5zm-269.7 31c.3-.9.3-1.7-.1-2.8-.2 1.2-.4 1.9.1 2.8zm200.3 169.4c-.1 0-.1.1-.1.2s-.1.1-.1.2c0 0 0 .1.1.1l.1.1c.4.2.7.1 1-.3.1-.1 0-.3-.1-.4-.4-.2-.7-.1-.9.1zm-31.4 28.4c.1 0 .1.1.2.1.7.2 1.1.1 1.2-.3 0-.1 0-.2-.1-.2-.3-.3-.8-.3-1.3.1.1.1.1.2 0 .3zm-155.6-214c0 .1.1.2.2.4.2-.1.4-.2.5-.4.1-.2 0-.4 0-.6-.1 0-.3 0-.4.1-.1.1-.3.3-.3.5zm301.7 99.4c0-.3.2-.9-.4-.8-.5.1-.7.5-.3 1.1.2-.1.5-.2.7-.3zm.1 0c.2.3.3.7.5.7.7 0 1.2.4 1.7.7.2.1.5.1.7.1.6 0 1.1-.3 1.3-.8.2-.5.2-1.1-.2-1.6s-1-.8-1.4-.4c-.6.5-1-.1-1.6 0-.3.3-.7.8-1 1.3 0 0-.1 0 0 0-.1 0-.1 0 0 0zm-222.6-179v-.2c-.1-.1-.3-.2-.4-.2-.2.1-.4.2-.6.4-.1.1 0 .2 0 .4 0 0 .1.1.2.1.1-.1.3-.1.4-.2.2-.1.3-.2.4-.3zm136.2 250.5c-.2.1-.3.3-.4.4 0 .1.2.3.2.3.2-.1.4-.2.5-.3.1-.1 0-.3.1-.4-.1 0-.3-.1-.4 0zm.4 0c.1 0 .1 0 0 0z"></path></g><g id="SvgjsG2610" class="text" transform="translate(89.67336643011691, 74.94548400629155) scale(1)" light-content="false" fill="#4a90fc"><path d="M-67.82 0L-66.11 0L-66.11 -17.26C-66.11 -18.35 -66.14 -19.53 -66.19 -20.79C-66.24 -22.06 -66.3 -23.25 -66.35 -24.36L-66.19 -24.36L-64.12 -18.5L-58.41 -2.87L-56.82 -2.87L-51.16 -18.5L-49.12 -24.36L-48.96 -24.36C-49.02 -23.25 -49.07 -22.06 -49.12 -20.79C-49.18 -19.53 -49.2 -18.35 -49.2 -17.26L-49.2 0L-47.41 0L-47.41 -26.28L-50.04 -26.28L-55.5 -10.85C-55.85 -9.89 -56.18 -8.92 -56.5 -7.95C-56.82 -6.98 -57.15 -6.01 -57.5 -5.02L-57.66 -5.02C-58 -6.01 -58.35 -6.98 -58.69 -7.95C-59.04 -8.92 -59.38 -9.89 -59.73 -10.85L-65.23 -26.28L-67.82 -26.28Z M-32.62 0.48C-31.21 0.48 -30.04 0.28 -29.13 -0.12C-28.21 -0.52 -27.37 -0.94 -26.6 -1.4L-27.31 -2.75C-28.03 -2.22 -28.81 -1.8 -29.65 -1.5C-30.48 -1.19 -31.42 -1.04 -32.46 -1.04C-33.55 -1.04 -34.53 -1.24 -35.41 -1.65C-36.28 -2.07 -37.04 -2.64 -37.66 -3.37C-38.28 -4.1 -38.77 -4.98 -39.12 -6C-39.46 -7.02 -39.65 -8.13 -39.67 -9.33L-25.88 -9.33C-25.82 -9.57 -25.8 -9.81 -25.8 -10.05L-25.8 -10.77C-25.8 -13.58 -26.45 -15.76 -27.75 -17.3C-29.05 -18.85 -30.85 -19.62 -33.13 -19.62C-34.2 -19.62 -35.23 -19.38 -36.22 -18.92C-37.22 -18.45 -38.11 -17.79 -38.9 -16.93C-39.68 -16.06 -40.3 -15.01 -40.77 -13.76C-41.24 -12.51 -41.47 -11.1 -41.47 -9.53C-41.47 -7.96 -41.24 -6.56 -40.77 -5.32C-40.3 -4.09 -39.67 -3.04 -38.88 -2.17C-38.08 -1.31 -37.14 -0.65 -36.06 -0.2C-34.99 0.25 -33.84 0.48 -32.62 0.48ZM-39.67 -10.77C-39.57 -11.91 -39.32 -12.93 -38.94 -13.84C-38.55 -14.74 -38.06 -15.51 -37.46 -16.15C-36.86 -16.79 -36.19 -17.27 -35.45 -17.6C-34.7 -17.94 -33.92 -18.1 -33.09 -18.1C-31.37 -18.1 -30 -17.5 -28.99 -16.29C-27.98 -15.08 -27.47 -13.24 -27.47 -10.77Z M-14.27 0.48C-13 0.48 -11.84 0.18 -10.79 -0.42C-9.74 -1.02 -8.83 -1.7 -8.05 -2.47L-7.93 -2.47L-7.78 0L-6.26 0L-6.26 -28.67L-8.01 -28.67L-8.01 -20.77L-7.93 -17.26C-8.89 -18.01 -9.8 -18.59 -10.67 -19C-11.53 -19.41 -12.55 -19.62 -13.72 -19.62C-14.86 -19.62 -15.94 -19.38 -16.97 -18.92C-17.99 -18.45 -18.89 -17.78 -19.68 -16.91C-20.46 -16.03 -21.08 -14.97 -21.53 -13.72C-21.98 -12.47 -22.21 -11.07 -22.21 -9.53C-22.21 -6.29 -21.49 -3.81 -20.06 -2.09C-18.62 -0.38 -16.69 0.48 -14.27 0.48ZM-14.04 -1.08C-15.05 -1.08 -15.94 -1.28 -16.73 -1.69C-17.51 -2.11 -18.17 -2.68 -18.7 -3.41C-19.23 -4.14 -19.64 -5.02 -19.92 -6.06C-20.2 -7.1 -20.34 -8.25 -20.34 -9.53C-20.34 -10.73 -20.16 -11.85 -19.82 -12.9C-19.47 -13.95 -19 -14.85 -18.4 -15.61C-17.8 -16.37 -17.09 -16.97 -16.27 -17.4C-15.44 -17.84 -14.55 -18.06 -13.6 -18.06C-12.67 -18.06 -11.76 -17.88 -10.87 -17.5C-9.97 -17.13 -9.02 -16.49 -8.01 -15.59L-8.01 -4.23C-9.02 -3.22 -10.01 -2.44 -10.98 -1.89C-11.96 -1.35 -12.97 -1.08 -14.04 -1.08Z M1.08 0L2.83 0L2.83 -19.14L1.08 -19.14ZM1.99 -23.76C2.45 -23.76 2.82 -23.91 3.13 -24.2C3.44 -24.5 3.59 -24.87 3.59 -25.32C3.59 -25.82 3.44 -26.22 3.13 -26.5C2.82 -26.77 2.45 -26.91 1.99 -26.91C1.54 -26.91 1.16 -26.77 0.86 -26.5C0.55 -26.22 0.4 -25.82 0.4 -25.32C0.4 -24.87 0.55 -24.5 0.86 -24.2C1.16 -23.91 1.54 -23.76 1.99 -23.76Z M7.22 0L9.09 0L13.68 -8.05C14.05 -8.72 14.41 -9.38 14.75 -10.05C15.1 -10.71 15.48 -11.44 15.91 -12.24L16.07 -12.24C16.55 -11.44 16.98 -10.71 17.36 -10.05C17.75 -9.38 18.13 -8.72 18.5 -8.05L23.09 0L25.08 0L17.19 -13.52L24.52 -26.28L22.65 -26.28L18.34 -18.54C17.97 -17.93 17.64 -17.36 17.36 -16.83C17.09 -16.29 16.76 -15.67 16.39 -14.95L16.23 -14.95C15.78 -15.67 15.4 -16.29 15.09 -16.83C14.79 -17.36 14.45 -17.93 14.08 -18.54L9.77 -26.28L7.78 -26.28L15.11 -13.6Z M36.52 0.48C37.75 0.48 38.86 0.24 39.87 -0.24C40.88 -0.72 41.8 -1.32 42.62 -2.03L41.71 -3.27C41.04 -2.66 40.28 -2.14 39.41 -1.71C38.55 -1.29 37.61 -1.08 36.6 -1.08C35.57 -1.08 34.62 -1.28 33.75 -1.69C32.89 -2.11 32.16 -2.68 31.56 -3.43C30.96 -4.17 30.5 -5.06 30.16 -6.1C29.83 -7.14 29.67 -8.28 29.67 -9.53C29.67 -10.81 29.84 -11.96 30.2 -13C30.56 -14.04 31.05 -14.93 31.68 -15.69C32.3 -16.45 33.03 -17.03 33.87 -17.44C34.71 -17.86 35.62 -18.06 36.6 -18.06C37.53 -18.06 38.37 -17.87 39.12 -17.48C39.86 -17.1 40.54 -16.61 41.15 -16.03L42.19 -17.26C41.52 -17.88 40.75 -18.42 39.87 -18.9C39 -19.38 37.89 -19.62 36.56 -19.62C35.39 -19.62 34.28 -19.39 33.23 -18.94C32.18 -18.49 31.26 -17.84 30.46 -16.99C29.67 -16.14 29.03 -15.08 28.55 -13.82C28.07 -12.55 27.83 -11.12 27.83 -9.53C27.83 -7.93 28.05 -6.52 28.49 -5.28C28.93 -4.05 29.54 -3 30.32 -2.15C31.11 -1.3 32.02 -0.65 33.07 -0.2C34.12 0.25 35.27 0.48 36.52 0.48Z M53.91 0.48C55.32 0.48 56.48 0.28 57.4 -0.12C58.31 -0.52 59.16 -0.94 59.93 -1.4L59.21 -2.75C58.49 -2.22 57.72 -1.8 56.88 -1.5C56.04 -1.19 55.1 -1.04 54.07 -1.04C52.98 -1.04 51.99 -1.24 51.12 -1.65C50.24 -2.07 49.49 -2.64 48.86 -3.37C48.24 -4.1 47.75 -4.98 47.41 -6C47.06 -7.02 46.88 -8.13 46.85 -9.33L60.65 -9.33C60.7 -9.57 60.73 -9.81 60.73 -10.05L60.73 -10.77C60.73 -13.58 60.08 -15.76 58.77 -17.3C57.47 -18.85 55.68 -19.62 53.39 -19.62C52.33 -19.62 51.3 -19.38 50.3 -18.92C49.3 -18.45 48.41 -17.79 47.63 -16.93C46.84 -16.06 46.22 -15.01 45.75 -13.76C45.29 -12.51 45.06 -11.1 45.06 -9.53C45.06 -7.96 45.29 -6.56 45.75 -5.32C46.22 -4.09 46.85 -3.04 47.65 -2.17C48.45 -1.31 49.38 -0.65 50.46 -0.2C51.54 0.25 52.69 0.48 53.91 0.48ZM46.85 -10.77C46.96 -11.91 47.2 -12.93 47.59 -13.84C47.97 -14.74 48.47 -15.51 49.06 -16.15C49.66 -16.79 50.33 -17.27 51.08 -17.6C51.82 -17.94 52.61 -18.1 53.43 -18.1C55.16 -18.1 56.53 -17.5 57.54 -16.29C58.55 -15.08 59.05 -13.24 59.05 -10.77Z M68.26 0.48C68.55 0.48 68.79 0.46 68.98 0.42C69.17 0.38 69.35 0.33 69.54 0.28L69.22 -1.16C69.01 -1.1 68.85 -1.08 68.76 -1.08L68.5 -1.08C68.26 -1.08 68.06 -1.18 67.9 -1.38C67.74 -1.57 67.66 -1.89 67.66 -2.31L67.66 -28.67L65.91 -28.67L65.91 -2.55C65.91 -0.53 66.69 0.48 68.26 0.48Z"></path></g><g id="SvgjsG2611" class="text" transform="translate(154.89965257297288, 118.26793537644281) scale(1)" light-content="false" fill="#4a90e2"><path d="M-115.58 -36.98L-140.28 -36.98L-140.28 -33.99L-129.79 -33.99L-129.79 0L-126.12 0L-126.12 -33.99L-115.58 -33.99Z M-91.66 -4.62C-93.41 -3.32 -95.58 -2.68 -98.16 -2.68C-99.95 -2.68 -101.61 -3.06 -103.15 -3.83C-104.68 -4.6 -105.93 -5.8 -106.9 -7.42C-107.86 -9.05 -108.36 -11.07 -108.39 -13.48L-84.68 -13.48C-84.54 -14.28 -84.47 -15.18 -84.47 -16.16C-84.47 -18.46 -85.01 -20.6 -86.07 -22.55C-87.14 -24.51 -88.7 -26.08 -90.74 -27.25C-92.79 -28.42 -95.21 -29.01 -98.01 -29.01C-100.73 -29.01 -103.15 -28.42 -105.27 -27.25C-107.39 -26.08 -109.04 -24.38 -110.23 -22.16C-111.42 -19.94 -112.01 -17.33 -112.01 -14.32C-112.01 -11.31 -111.42 -8.7 -110.23 -6.48C-109.04 -4.26 -107.39 -2.56 -105.27 -1.39C-103.15 -0.22 -100.73 0.37 -98.01 0.37C-94.37 0.37 -91.36 -0.58 -88.98 -2.47C-86.61 -4.35 -85.15 -6.82 -84.63 -9.86L-88.51 -9.86C-88.86 -7.66 -89.91 -5.91 -91.66 -4.62ZM-103.09 -24.86C-101.55 -25.63 -99.86 -26.02 -98.01 -26.02C-96.19 -26.02 -94.51 -25.63 -92.97 -24.86C-91.43 -24.09 -90.21 -22.9 -89.3 -21.3C-88.39 -19.69 -88 -17.71 -88.14 -15.37L-108.39 -15.37C-108.32 -17.75 -107.81 -19.73 -106.84 -21.32C-105.88 -22.91 -104.63 -24.09 -103.09 -24.86Z M-61.71 -26.54C-63.6 -28.18 -66.1 -29.01 -69.21 -29.01C-72.15 -29.01 -74.47 -28.29 -76.19 -26.86C-77.9 -25.42 -78.76 -23.53 -78.76 -21.19C-78.76 -19.41 -78.32 -18 -77.44 -16.97C-76.57 -15.94 -75.51 -15.18 -74.27 -14.69C-73.03 -14.2 -71.38 -13.71 -69.31 -13.22C-67.53 -12.8 -66.12 -12.4 -65.09 -12.04C-64.06 -11.67 -63.2 -11.12 -62.5 -10.39C-61.8 -9.65 -61.45 -8.67 -61.45 -7.45C-61.45 -5.94 -61.95 -4.72 -62.97 -3.78C-63.98 -2.83 -65.4 -2.36 -67.22 -2.36C-69.66 -2.36 -71.6 -2.95 -73.04 -4.14C-74.47 -5.33 -75.29 -6.87 -75.5 -8.76L-79.07 -8.76C-78.69 -5.93 -77.44 -3.7 -75.35 -2.07C-73.25 -0.45 -70.56 0.37 -67.27 0.37C-64.47 0.37 -62.22 -0.36 -60.53 -1.81C-58.83 -3.26 -57.99 -5.12 -57.99 -7.4C-57.99 -9.25 -58.44 -10.72 -59.35 -11.8C-60.26 -12.89 -61.35 -13.68 -62.63 -14.19C-63.9 -14.7 -65.59 -15.19 -67.69 -15.68C-69.4 -16.07 -70.77 -16.44 -71.78 -16.81C-72.79 -17.18 -73.64 -17.71 -74.32 -18.41C-75.01 -19.11 -75.35 -20.04 -75.35 -21.19C-75.35 -22.73 -74.81 -23.96 -73.75 -24.89C-72.68 -25.81 -71.2 -26.28 -69.31 -26.28C-67.11 -26.28 -65.35 -25.67 -64.04 -24.47C-62.73 -23.26 -61.97 -21.73 -61.76 -19.88L-58.25 -19.88C-58.67 -22.68 -59.82 -24.9 -61.71 -26.54Z M-38.26 -3.25L-41.2 -3.25C-43.05 -3.25 -44.35 -3.63 -45.08 -4.38C-45.82 -5.13 -46.18 -6.52 -46.18 -8.55L-46.18 -25.44L-38.32 -25.44L-38.32 -28.64L-46.18 -28.64L-46.18 -35.88L-49.91 -35.88L-49.91 -28.64L-54.26 -28.64L-54.26 -25.44L-49.91 -25.44L-49.91 -8.6C-49.91 -5.49 -49.23 -3.28 -47.86 -1.97C-46.5 -0.66 -44.44 0 -41.67 0L-38.26 0Z M-28.51 -15.42L-21.16 -15.42C-17.14 -15.42 -14.07 -16.36 -11.96 -18.23C-9.84 -20.1 -8.79 -22.75 -8.79 -26.17C-8.79 -29.53 -9.81 -32.17 -11.85 -34.09C-13.9 -36.02 -17 -36.98 -21.16 -36.98L-32.23 -36.98L-32.23 0L-28.51 0ZM-14.61 -20.53C-16.01 -19.22 -18.3 -18.57 -21.48 -18.57L-28.51 -18.57L-28.51 -33.88L-21.48 -33.88C-18.3 -33.88 -16.01 -33.23 -14.61 -31.92C-13.21 -30.61 -12.51 -28.69 -12.51 -26.17C-12.51 -23.73 -13.21 -21.85 -14.61 -20.53Z M4.8 -27.48C2.95 -26.37 1.6 -24.77 0.76 -22.71L0.76 -28.64L-2.96 -28.64L-2.96 0L0.76 0L0.76 -15.68C0.76 -19.04 1.67 -21.46 3.49 -22.95C5.31 -24.43 7.6 -25.18 10.36 -25.18L11.57 -25.18L11.57 -29.16C8.91 -29.16 6.65 -28.6 4.8 -27.48Z M36.72 -27.25C34.57 -28.42 32.13 -29.01 29.4 -29.01C26.67 -29.01 24.22 -28.42 22.06 -27.25C19.89 -26.08 18.18 -24.38 16.94 -22.16C15.7 -19.94 15.08 -17.33 15.08 -14.32C15.08 -11.35 15.7 -8.75 16.94 -6.53C18.18 -4.31 19.89 -2.61 22.06 -1.42C24.22 -0.23 26.67 0.37 29.4 0.37C32.13 0.37 34.57 -0.23 36.72 -1.42C38.87 -2.61 40.55 -4.3 41.78 -6.5C43 -8.71 43.61 -11.31 43.61 -14.32C43.61 -17.33 43 -19.94 41.78 -22.16C40.55 -24.38 38.87 -26.08 36.72 -27.25ZM24.15 -24.55C25.76 -25.39 27.51 -25.81 29.4 -25.81C31.25 -25.81 32.97 -25.39 34.57 -24.55C36.16 -23.71 37.44 -22.42 38.42 -20.69C39.4 -18.96 39.89 -16.84 39.89 -14.32C39.89 -11.8 39.4 -9.69 38.42 -7.97C37.44 -6.26 36.16 -4.98 34.57 -4.14C32.97 -3.3 31.25 -2.88 29.4 -2.88C27.51 -2.88 25.76 -3.3 24.15 -4.14C22.55 -4.98 21.25 -6.26 20.27 -7.97C19.29 -9.69 18.8 -11.8 18.8 -14.32C18.8 -16.84 19.29 -18.96 20.27 -20.69C21.25 -22.42 22.55 -23.71 24.15 -24.55Z M67.9 -36.53C66.25 -37.35 64.26 -37.77 61.92 -37.77C58.21 -37.77 55.28 -36.81 53.11 -34.91C50.94 -33 49.72 -30.33 49.44 -26.91L53.05 -26.91C53.37 -29.5 54.33 -31.44 55.94 -32.73C57.55 -34.02 59.51 -34.67 61.81 -34.67C64.16 -34.67 65.99 -34.06 67.32 -32.83C68.65 -31.61 69.31 -29.97 69.31 -27.9C69.31 -23.18 65.77 -20.82 58.67 -20.82L57.51 -20.82L57.51 -17.73L58.67 -17.73C62.27 -17.73 65.06 -17.07 67.03 -15.76C69.01 -14.45 70 -12.54 70 -10.02C70 -7.89 69.31 -6.15 67.92 -4.83C66.54 -3.5 64.54 -2.83 61.92 -2.83C59.23 -2.83 57.07 -3.58 55.44 -5.06C53.82 -6.55 52.81 -8.53 52.43 -11.01L48.81 -11.01C49.26 -7.31 50.64 -4.48 52.95 -2.54C55.26 -0.6 58.28 0.37 62.02 0.37C65.8 0.37 68.68 -0.58 70.65 -2.47C72.63 -4.35 73.62 -6.8 73.62 -9.81C73.62 -12.43 72.82 -14.49 71.23 -15.97C69.64 -17.46 67.44 -18.55 64.65 -19.25L64.65 -19.56C67.44 -19.84 69.52 -20.79 70.89 -22.4C72.25 -24.01 72.93 -25.96 72.93 -28.27C72.93 -30.09 72.51 -31.72 71.65 -33.15C70.79 -34.58 69.54 -35.71 67.9 -36.53Z M99.11 -32.76C100.44 -31.44 101.26 -29.6 101.57 -27.22L105.09 -27.22C104.74 -30.37 103.62 -32.91 101.73 -34.85C99.84 -36.79 97.2 -37.77 93.81 -37.77C89.05 -37.77 85.63 -36.1 83.53 -32.76C81.43 -29.42 80.38 -24.51 80.38 -18.04C80.38 -12.38 81.35 -7.89 83.29 -4.59C85.23 -1.29 88.84 0.37 94.12 0.37C96.89 0.37 99.19 -0.19 101.05 -1.31C102.9 -2.43 104.26 -3.92 105.14 -5.77C106.01 -7.62 106.45 -9.69 106.45 -11.96C106.45 -15.91 105.4 -19 103.3 -21.22C101.21 -23.44 98.29 -24.55 94.54 -24.55C91.82 -24.55 89.46 -23.87 87.46 -22.53C85.47 -21.18 84.23 -19.35 83.74 -17.05C83.7 -17.57 83.69 -18.34 83.69 -19.35C83.69 -24.7 84.53 -28.6 86.23 -31.05C87.93 -33.5 90.38 -34.72 93.6 -34.72C95.94 -34.72 97.78 -34.07 99.11 -32.76ZM85.21 -7.89C84.51 -9.42 84.16 -11.05 84.16 -12.8C84.16 -14.72 84.63 -16.34 85.57 -17.65C86.52 -18.96 87.73 -19.95 89.19 -20.61C90.66 -21.28 92.2 -21.61 93.81 -21.61C96.64 -21.61 98.87 -20.79 100.5 -19.14C102.12 -17.5 102.94 -15.12 102.94 -12.01C102.94 -9.14 102.12 -6.9 100.5 -5.27C98.87 -3.65 96.71 -2.83 94.02 -2.83C91.78 -2.83 89.93 -3.3 88.46 -4.22C86.99 -5.15 85.91 -6.37 85.21 -7.89Z M115.39 -4.75C113.52 -8.05 112.59 -12.69 112.59 -18.67C112.59 -24.62 113.52 -29.23 115.39 -32.52C117.26 -35.81 120.58 -37.45 125.33 -37.45C130.05 -37.45 133.36 -35.81 135.25 -32.52C137.13 -29.23 138.08 -24.62 138.08 -18.67C138.08 -12.69 137.13 -8.05 135.25 -4.75C133.36 -1.44 130.05 0.21 125.33 0.21C120.58 0.21 117.26 -1.44 115.39 -4.75ZM133.7 -10.46C134.17 -12.68 134.41 -15.42 134.41 -18.67C134.41 -21.89 134.17 -24.6 133.7 -26.8C133.23 -29.01 132.33 -30.75 131 -32.05C129.67 -33.34 127.78 -33.99 125.33 -33.99C122.85 -33.99 120.94 -33.34 119.62 -32.05C118.29 -30.75 117.39 -29.01 116.91 -26.8C116.44 -24.6 116.21 -21.89 116.21 -18.67C116.21 -15.42 116.44 -12.68 116.91 -10.46C117.39 -8.24 118.29 -6.49 119.62 -5.19C120.94 -3.9 122.85 -3.25 125.33 -3.25C127.78 -3.25 129.67 -3.9 131 -5.19C132.33 -6.49 133.23 -8.24 133.7 -10.46Z"></path></g><rect id="SvgjsRect2612" width="274.8895239323631" height="2.0422768140949574" fill="#f5a623" transform="translate(18.09011399217235, 127.9607561931856) scale(1)" light-content="false"></rect><g id="SvgjsG2613" class="text" transform="translate(169.57479501925658, 144.0016318191923) scale(1)" light-content="false" fill="#f5a623"><path d="M-141.38 -8.47L-147.74 -8.47L-147.74 -7.13L-145.42 -7.13L-145.42 0L-143.72 0L-143.72 -7.13L-141.38 -7.13Z M-132.23 -8.47L-133.93 -8.47L-133.93 -5.04L-137.56 -5.04L-137.56 -8.47L-139.25 -8.47L-139.25 0L-137.56 0L-137.56 -3.68L-133.93 -3.68L-133.93 0L-132.23 0Z M-127.8 -7.13L-124.44 -7.13L-124.44 -8.47L-129.49 -8.47L-129.49 0L-124.44 0L-124.44 -1.36L-127.8 -1.36L-127.8 -3.64L-124.8 -3.64L-124.8 -4.93L-127.8 -4.93Z M-116.48 -7.13L-113.12 -7.13L-113.12 -8.47L-118.18 -8.47L-118.18 0L-113.12 0L-113.12 -1.36L-116.48 -1.36L-116.48 -3.64L-113.48 -3.64L-113.48 -4.93L-116.48 -4.93Z M-105.52 -1.7L-104.93 0L-103.14 0L-106.25 -8.38L-108.18 -8.38L-111.3 0L-109.51 0L-108.91 -1.7ZM-105.97 -2.99L-108.47 -2.99L-107.22 -6.56Z M-95.53 -1.12C-95.32 -1.49 -95.21 -1.88 -95.21 -2.32C-95.21 -2.86 -95.33 -3.3 -95.57 -3.64C-95.81 -3.97 -96.1 -4.22 -96.44 -4.39C-96.78 -4.56 -97.22 -4.74 -97.76 -4.93C-98.16 -5.06 -98.47 -5.18 -98.69 -5.28C-98.92 -5.38 -99.11 -5.52 -99.26 -5.68C-99.41 -5.85 -99.48 -6.05 -99.48 -6.3C-99.48 -6.61 -99.38 -6.85 -99.19 -7.01C-99 -7.18 -98.75 -7.26 -98.44 -7.26C-98.08 -7.26 -97.79 -7.16 -97.58 -6.97C-97.38 -6.77 -97.25 -6.52 -97.2 -6.22L-95.38 -6.22C-95.45 -6.94 -95.75 -7.51 -96.28 -7.94C-96.81 -8.38 -97.53 -8.59 -98.42 -8.59C-99.29 -8.59 -99.98 -8.38 -100.51 -7.96C-101.03 -7.54 -101.29 -6.97 -101.29 -6.24C-101.29 -5.71 -101.17 -5.28 -100.94 -4.96C-100.7 -4.63 -100.42 -4.38 -100.08 -4.21C-99.74 -4.03 -99.31 -3.86 -98.78 -3.68C-98.38 -3.55 -98.06 -3.43 -97.82 -3.32C-97.59 -3.22 -97.4 -3.08 -97.25 -2.91C-97.1 -2.74 -97.02 -2.52 -97.02 -2.26C-97.02 -1.96 -97.11 -1.72 -97.3 -1.53C-97.49 -1.34 -97.76 -1.25 -98.11 -1.25C-98.5 -1.25 -98.82 -1.36 -99.05 -1.59C-99.29 -1.82 -99.43 -2.1 -99.47 -2.45L-101.27 -2.45C-101.23 -1.94 -101.07 -1.49 -100.78 -1.1C-100.5 -0.72 -100.12 -0.43 -99.65 -0.22C-99.18 -0.02 -98.64 0.08 -98.04 0.08C-97.43 0.08 -96.92 -0.03 -96.49 -0.25C-96.07 -0.47 -95.75 -0.76 -95.53 -1.12Z M-85.93 -8.47L-87.84 -8.47L-89.64 -4.76L-91.44 -8.47L-93.38 -8.47L-90.5 -2.96L-90.5 0L-88.8 0L-88.8 -2.96Z M-74.24 -8.47L-80.6 -8.47L-80.6 -7.13L-78.28 -7.13L-78.28 0L-76.58 0L-76.58 -7.13L-74.24 -7.13Z M-65.98 -8.04C-66.63 -8.41 -67.34 -8.59 -68.14 -8.59C-68.93 -8.59 -69.65 -8.41 -70.29 -8.04C-70.93 -7.67 -71.44 -7.16 -71.81 -6.5C-72.19 -5.84 -72.37 -5.09 -72.37 -4.26C-72.37 -3.43 -72.19 -2.68 -71.81 -2.02C-71.44 -1.35 -70.93 -0.84 -70.29 -0.47C-69.65 -0.1 -68.93 0.08 -68.14 0.08C-67.34 0.08 -66.63 -0.1 -65.98 -0.47C-65.34 -0.84 -64.83 -1.35 -64.46 -2.02C-64.09 -2.68 -63.9 -3.43 -63.9 -4.26C-63.9 -5.09 -64.09 -5.84 -64.46 -6.5C-64.83 -7.16 -65.34 -7.67 -65.98 -8.04ZM-69.44 -6.7C-69.07 -6.92 -68.63 -7.03 -68.14 -7.03C-67.64 -7.03 -67.2 -6.92 -66.83 -6.7C-66.45 -6.47 -66.16 -6.15 -65.95 -5.73C-65.73 -5.31 -65.63 -4.82 -65.63 -4.26C-65.63 -3.7 -65.73 -3.21 -65.95 -2.79C-66.16 -2.37 -66.45 -2.05 -66.83 -1.82C-67.2 -1.6 -67.64 -1.49 -68.14 -1.49C-68.63 -1.49 -69.07 -1.6 -69.44 -1.82C-69.82 -2.05 -70.11 -2.37 -70.33 -2.79C-70.54 -3.21 -70.64 -3.7 -70.64 -4.26C-70.64 -4.82 -70.54 -5.31 -70.33 -5.73C-70.11 -6.15 -69.82 -6.47 -69.44 -6.7Z M-55.98 -8.47L-57.66 -8.47L-57.66 -3.5C-57.66 -2.33 -57.36 -1.44 -56.75 -0.83C-56.14 -0.22 -55.33 0.08 -54.31 0.08C-53.66 0.08 -53.07 -0.05 -52.55 -0.31C-52.04 -0.58 -51.63 -0.98 -51.34 -1.52C-51.05 -2.06 -50.9 -2.72 -50.9 -3.5L-50.9 -8.47L-52.58 -8.47L-52.58 -3.5C-52.58 -2.84 -52.73 -2.34 -53.02 -2.01C-53.31 -1.68 -53.73 -1.51 -54.28 -1.51C-54.83 -1.51 -55.25 -1.68 -55.54 -2.01C-55.83 -2.34 -55.98 -2.84 -55.98 -3.5Z M-42.72 -1.12C-42.5 -1.49 -42.4 -1.88 -42.4 -2.32C-42.4 -2.86 -42.52 -3.3 -42.76 -3.64C-43 -3.97 -43.29 -4.22 -43.63 -4.39C-43.97 -4.56 -44.41 -4.74 -44.95 -4.93C-45.34 -5.06 -45.65 -5.18 -45.88 -5.28C-46.11 -5.38 -46.3 -5.52 -46.45 -5.68C-46.59 -5.85 -46.67 -6.05 -46.67 -6.3C-46.67 -6.61 -46.57 -6.85 -46.38 -7.01C-46.19 -7.18 -45.94 -7.26 -45.62 -7.26C-45.26 -7.26 -44.98 -7.16 -44.77 -6.97C-44.56 -6.77 -44.44 -6.52 -44.39 -6.22L-42.56 -6.22C-42.64 -6.94 -42.94 -7.51 -43.47 -7.94C-44 -8.38 -44.72 -8.59 -45.61 -8.59C-46.48 -8.59 -47.17 -8.38 -47.69 -7.96C-48.22 -7.54 -48.48 -6.97 -48.48 -6.24C-48.48 -5.71 -48.36 -5.28 -48.13 -4.96C-47.89 -4.63 -47.6 -4.38 -47.27 -4.21C-46.93 -4.03 -46.5 -3.86 -45.97 -3.68C-45.56 -3.55 -45.24 -3.43 -45.01 -3.32C-44.78 -3.22 -44.59 -3.08 -44.44 -2.91C-44.28 -2.74 -44.21 -2.52 -44.21 -2.26C-44.21 -1.96 -44.3 -1.72 -44.49 -1.53C-44.68 -1.34 -44.95 -1.25 -45.3 -1.25C-45.69 -1.25 -46.01 -1.36 -46.24 -1.59C-46.48 -1.82 -46.62 -2.1 -46.66 -2.45L-48.46 -2.45C-48.42 -1.94 -48.25 -1.49 -47.97 -1.1C-47.69 -0.72 -47.31 -0.43 -46.84 -0.22C-46.36 -0.02 -45.83 0.08 -45.23 0.08C-44.62 0.08 -44.1 -0.03 -43.68 -0.25C-43.26 -0.47 -42.94 -0.76 -42.72 -1.12Z M-38.26 -7.13L-34.9 -7.13L-34.9 -8.47L-39.95 -8.47L-39.95 0L-34.9 0L-34.9 -1.36L-38.26 -1.36L-38.26 -3.64L-35.26 -3.64L-35.26 -4.93L-38.26 -4.93Z M-26.94 -1.3L-26.94 -8.47L-28.63 -8.47L-28.63 0L-24.1 0L-24.1 -1.3Z M-20.2 -8.47L-21.89 -8.47L-21.89 0L-20.2 0Z M-8.33 -8.38L-10.37 -8.38L-12.86 -2.08L-15.41 -8.38L-17.46 -8.38L-17.46 0L-15.77 0L-15.77 -5.82L-13.62 0L-12.16 0L-10.01 -5.84L-10.01 0L-8.33 0Z M-0.1 -1.12C0.12 -1.49 0.23 -1.88 0.23 -2.32C0.23 -2.86 0.11 -3.3 -0.13 -3.64C-0.37 -3.97 -0.66 -4.22 -1 -4.39C-1.34 -4.56 -1.78 -4.74 -2.33 -4.93C-2.72 -5.06 -3.03 -5.18 -3.26 -5.28C-3.49 -5.38 -3.67 -5.52 -3.82 -5.68C-3.97 -5.85 -4.04 -6.05 -4.04 -6.3C-4.04 -6.61 -3.95 -6.85 -3.76 -7.01C-3.56 -7.18 -3.31 -7.26 -3 -7.26C-2.64 -7.26 -2.36 -7.16 -2.15 -6.97C-1.94 -6.77 -1.81 -6.52 -1.76 -6.22L0.06 -6.22C-0.01 -6.94 -0.31 -7.51 -0.85 -7.94C-1.38 -8.38 -2.09 -8.59 -2.99 -8.59C-3.85 -8.59 -4.55 -8.38 -5.07 -7.96C-5.59 -7.54 -5.86 -6.97 -5.86 -6.24C-5.86 -5.71 -5.74 -5.28 -5.5 -4.96C-5.27 -4.63 -4.98 -4.38 -4.64 -4.21C-4.31 -4.03 -3.88 -3.86 -3.35 -3.68C-2.94 -3.55 -2.62 -3.43 -2.39 -3.32C-2.16 -3.22 -1.96 -3.08 -1.81 -2.91C-1.66 -2.74 -1.58 -2.52 -1.58 -2.26C-1.58 -1.96 -1.68 -1.72 -1.87 -1.53C-2.05 -1.34 -2.32 -1.25 -2.68 -1.25C-3.07 -1.25 -3.38 -1.36 -3.62 -1.59C-3.85 -1.82 -3.99 -2.1 -4.03 -2.45L-5.83 -2.45C-5.79 -1.94 -5.63 -1.49 -5.35 -1.1C-5.06 -0.72 -4.68 -0.43 -4.21 -0.22C-3.74 -0.02 -3.2 0.08 -2.6 0.08C-2 0.08 -1.48 -0.03 -1.06 -0.25C-0.63 -0.47 -0.31 -0.76 -0.1 -1.12Z M11.75 -8.47L6.49 -8.47L6.49 0L8.18 0L8.18 -3.56L11.04 -3.56L11.04 -4.86L8.18 -4.86L8.18 -7.13L11.75 -7.13Z M20.21 -8.04C19.57 -8.41 18.85 -8.59 18.06 -8.59C17.27 -8.59 16.55 -8.41 15.91 -8.04C15.26 -7.67 14.75 -7.16 14.38 -6.5C14.01 -5.84 13.82 -5.09 13.82 -4.26C13.82 -3.43 14.01 -2.68 14.38 -2.02C14.75 -1.35 15.26 -0.84 15.91 -0.47C16.55 -0.1 17.27 0.08 18.06 0.08C18.85 0.08 19.57 -0.1 20.21 -0.47C20.86 -0.84 21.37 -1.35 21.74 -2.02C22.11 -2.68 22.3 -3.43 22.3 -4.26C22.3 -5.09 22.11 -5.84 21.74 -6.5C21.37 -7.16 20.86 -7.67 20.21 -8.04ZM16.75 -6.7C17.13 -6.92 17.56 -7.03 18.06 -7.03C18.56 -7.03 18.99 -6.92 19.37 -6.7C19.74 -6.47 20.04 -6.15 20.25 -5.73C20.46 -5.31 20.57 -4.82 20.57 -4.26C20.57 -3.7 20.46 -3.21 20.25 -2.79C20.04 -2.37 19.74 -2.05 19.37 -1.82C18.99 -1.6 18.56 -1.49 18.06 -1.49C17.56 -1.49 17.13 -1.6 16.75 -1.82C16.38 -2.05 16.08 -2.37 15.87 -2.79C15.66 -3.21 15.55 -3.7 15.55 -4.26C15.55 -4.82 15.66 -5.31 15.87 -5.73C16.08 -6.15 16.38 -6.47 16.75 -6.7Z M29.18 0L31.06 0L28.94 -3.38C29.62 -3.53 30.13 -3.82 30.49 -4.25C30.84 -4.68 31.02 -5.22 31.02 -5.86C31.02 -6.64 30.76 -7.27 30.25 -7.75C29.73 -8.23 28.98 -8.47 28 -8.47L24.77 -8.47L24.77 0L26.46 0L26.46 -3.3L27.2 -3.3ZM26.46 -4.46L26.46 -7.04L27.85 -7.04C28.35 -7.04 28.71 -6.93 28.95 -6.7C29.19 -6.47 29.3 -6.16 29.3 -5.75C29.3 -4.89 28.82 -4.46 27.85 -4.46Z M42.34 -1.7L42.92 0L44.71 0L41.6 -8.38L39.67 -8.38L36.55 0L38.34 0L38.94 -1.7ZM41.88 -2.99L39.38 -2.99L40.63 -6.56Z M55.96 -8.38L53.92 -8.38L51.42 -2.08L48.88 -8.38L46.82 -8.38L46.82 0L48.52 0L48.52 -5.82L50.66 0L52.13 0L54.28 -5.84L54.28 0L55.96 0Z M64.65 -3.64C64.34 -4.02 63.93 -4.26 63.42 -4.37C63.87 -4.47 64.23 -4.69 64.51 -5.03C64.78 -5.36 64.92 -5.8 64.92 -6.32C64.92 -7 64.69 -7.53 64.23 -7.91C63.77 -8.28 63.11 -8.47 62.26 -8.47L58.69 -8.47L58.69 0L62.33 0C63.23 0 63.92 -0.21 64.4 -0.62C64.87 -1.03 65.11 -1.59 65.11 -2.3C65.11 -2.82 64.96 -3.26 64.65 -3.64ZM60.38 -4.92L60.38 -7.12L61.88 -7.12C62.33 -7.12 62.66 -7.02 62.88 -6.83C63.1 -6.64 63.2 -6.36 63.2 -6.01C63.2 -5.66 63.09 -5.39 62.87 -5.2C62.65 -5.01 62.33 -4.92 61.91 -4.92ZM63.02 -1.67C62.78 -1.48 62.44 -1.38 61.99 -1.38L60.38 -1.38L60.38 -3.71L61.98 -3.71C62.43 -3.71 62.77 -3.61 63.02 -3.4C63.26 -3.2 63.38 -2.91 63.38 -2.53C63.38 -2.16 63.26 -1.87 63.02 -1.67Z M69.19 -8.47L67.5 -8.47L67.5 0L69.19 0Z M77.69 -8.47L71.33 -8.47L71.33 -7.13L73.66 -7.13L73.66 0L75.35 0L75.35 -7.13L77.69 -7.13Z M81.52 -8.47L79.82 -8.47L79.82 0L81.52 0Z M90.38 -8.04C89.73 -8.41 89.02 -8.59 88.22 -8.59C87.43 -8.59 86.71 -8.41 86.07 -8.04C85.43 -7.67 84.92 -7.16 84.55 -6.5C84.17 -5.84 83.99 -5.09 83.99 -4.26C83.99 -3.43 84.17 -2.68 84.55 -2.02C84.92 -1.35 85.43 -0.84 86.07 -0.47C86.71 -0.1 87.43 0.08 88.22 0.08C89.02 0.08 89.73 -0.1 90.38 -0.47C91.02 -0.84 91.53 -1.35 91.9 -2.02C92.27 -2.68 92.46 -3.43 92.46 -4.26C92.46 -5.09 92.27 -5.84 91.9 -6.5C91.53 -7.16 91.02 -7.67 90.38 -8.04ZM86.92 -6.7C87.29 -6.92 87.73 -7.03 88.22 -7.03C88.72 -7.03 89.16 -6.92 89.53 -6.7C89.91 -6.47 90.2 -6.15 90.41 -5.73C90.63 -5.31 90.73 -4.82 90.73 -4.26C90.73 -3.7 90.63 -3.21 90.41 -2.79C90.2 -2.37 89.91 -2.05 89.53 -1.82C89.16 -1.6 88.72 -1.49 88.22 -1.49C87.73 -1.49 87.29 -1.6 86.92 -1.82C86.54 -2.05 86.25 -2.37 86.03 -2.79C85.82 -3.21 85.72 -3.7 85.72 -4.26C85.72 -4.82 85.82 -5.31 86.03 -5.73C86.25 -6.15 86.54 -6.47 86.92 -6.7Z M96.56 -8.47L94.88 -8.47L94.88 -3.5C94.88 -2.33 95.19 -1.44 95.8 -0.83C96.4 -0.22 97.22 0.08 98.23 0.08C98.89 0.08 99.47 -0.05 99.99 -0.31C100.51 -0.58 100.91 -0.98 101.2 -1.52C101.49 -2.06 101.64 -2.72 101.64 -3.5L101.64 -8.47L99.96 -8.47L99.96 -3.5C99.96 -2.84 99.81 -2.34 99.52 -2.01C99.23 -1.68 98.81 -1.51 98.27 -1.51C97.72 -1.51 97.29 -1.68 97 -2.01C96.71 -2.34 96.56 -2.84 96.56 -3.5Z M109.82 -1.12C110.04 -1.49 110.15 -1.88 110.15 -2.32C110.15 -2.86 110.03 -3.3 109.79 -3.64C109.55 -3.97 109.26 -4.22 108.92 -4.39C108.58 -4.56 108.14 -4.74 107.59 -4.93C107.2 -5.06 106.89 -5.18 106.66 -5.28C106.43 -5.38 106.25 -5.52 106.1 -5.68C105.95 -5.85 105.88 -6.05 105.88 -6.3C105.88 -6.61 105.97 -6.85 106.16 -7.01C106.36 -7.18 106.61 -7.26 106.92 -7.26C107.28 -7.26 107.56 -7.16 107.77 -6.97C107.98 -6.77 108.11 -6.52 108.16 -6.22L109.98 -6.22C109.91 -6.94 109.61 -7.51 109.07 -7.94C108.54 -8.38 107.83 -8.59 106.93 -8.59C106.07 -8.59 105.37 -8.38 104.85 -7.96C104.33 -7.54 104.06 -6.97 104.06 -6.24C104.06 -5.71 104.18 -5.28 104.42 -4.96C104.65 -4.63 104.94 -4.38 105.28 -4.21C105.61 -4.03 106.04 -3.86 106.57 -3.68C106.98 -3.55 107.3 -3.43 107.53 -3.32C107.76 -3.22 107.96 -3.08 108.11 -2.91C108.26 -2.74 108.34 -2.52 108.34 -2.26C108.34 -1.96 108.24 -1.72 108.05 -1.53C107.87 -1.34 107.6 -1.25 107.24 -1.25C106.85 -1.25 106.54 -1.36 106.3 -1.59C106.07 -1.82 105.93 -2.1 105.89 -2.45L104.09 -2.45C104.13 -1.94 104.29 -1.49 104.57 -1.1C104.86 -0.72 105.24 -0.43 105.71 -0.22C106.18 -0.02 106.72 0.08 107.32 0.08C107.92 0.08 108.44 -0.03 108.86 -0.25C109.29 -0.47 109.61 -0.76 109.82 -1.12Z M118.1 -1.3L118.1 -8.47L116.41 -8.47L116.41 0L120.95 0L120.95 -1.3Z M128.32 -1.7L128.9 0L130.69 0L127.58 -8.38L125.65 -8.38L122.53 0L124.32 0L124.92 -1.7ZM127.86 -2.99L125.36 -2.99L126.61 -6.56Z M138.76 -3.64C138.45 -4.02 138.04 -4.26 137.53 -4.37C137.98 -4.47 138.34 -4.69 138.62 -5.03C138.89 -5.36 139.03 -5.8 139.03 -6.32C139.03 -7 138.8 -7.53 138.34 -7.91C137.88 -8.28 137.22 -8.47 136.37 -8.47L132.8 -8.47L132.8 0L136.44 0C137.34 0 138.03 -0.21 138.51 -0.62C138.99 -1.03 139.22 -1.59 139.22 -2.3C139.22 -2.82 139.07 -3.26 138.76 -3.64ZM134.5 -4.92L134.5 -7.12L136 -7.12C136.44 -7.12 136.78 -7.02 136.99 -6.83C137.21 -6.64 137.32 -6.36 137.32 -6.01C137.32 -5.66 137.21 -5.39 136.99 -5.2C136.77 -5.01 136.44 -4.92 136.02 -4.92ZM137.14 -1.67C136.9 -1.48 136.55 -1.38 136.1 -1.38L134.5 -1.38L134.5 -3.71L136.09 -3.71C136.54 -3.71 136.89 -3.61 137.13 -3.4C137.37 -3.2 137.5 -2.91 137.5 -2.53C137.5 -2.16 137.38 -1.87 137.14 -1.67Z M147.11 -1.12C147.32 -1.49 147.43 -1.88 147.43 -2.32C147.43 -2.86 147.31 -3.3 147.07 -3.64C146.83 -3.97 146.54 -4.22 146.2 -4.39C145.86 -4.56 145.42 -4.74 144.88 -4.93C144.48 -5.06 144.17 -5.18 143.95 -5.28C143.72 -5.38 143.53 -5.52 143.38 -5.68C143.23 -5.85 143.16 -6.05 143.16 -6.3C143.16 -6.61 143.26 -6.85 143.45 -7.01C143.64 -7.18 143.89 -7.26 144.2 -7.26C144.56 -7.26 144.85 -7.16 145.06 -6.97C145.26 -6.77 145.39 -6.52 145.44 -6.22L147.26 -6.22C147.19 -6.94 146.89 -7.51 146.36 -7.94C145.83 -8.38 145.11 -8.59 144.22 -8.59C143.35 -8.59 142.66 -8.38 142.13 -7.96C141.61 -7.54 141.35 -6.97 141.35 -6.24C141.35 -5.71 141.47 -5.28 141.7 -4.96C141.94 -4.63 142.22 -4.38 142.56 -4.21C142.9 -4.03 143.33 -3.86 143.86 -3.68C144.26 -3.55 144.58 -3.43 144.82 -3.32C145.05 -3.22 145.24 -3.08 145.39 -2.91C145.54 -2.74 145.62 -2.52 145.62 -2.26C145.62 -1.96 145.53 -1.72 145.34 -1.53C145.15 -1.34 144.88 -1.25 144.53 -1.25C144.14 -1.25 143.82 -1.36 143.59 -1.59C143.35 -1.82 143.21 -2.1 143.17 -2.45L141.37 -2.45C141.41 -1.94 141.57 -1.49 141.86 -1.1C142.14 -0.72 142.52 -0.43 142.99 -0.22C143.46 -0.02 144 0.08 144.6 0.08C145.21 0.08 145.72 -0.03 146.15 -0.25C146.57 -0.47 146.89 -0.76 147.11 -1.12Z"></path></g></g></g></svg>